<svg xmlns="http://www.w3.org/2000/svg" xmlns:xlink="http://www.w3.org/1999/xlink" width="1228" zoomAndPan="magnify" viewBox="0 0 1296 1727.999927" height="1304" preserveAspectRatio="xMidYMid meet" version="1.0"><defs><g/></defs><rect x="-129.6" width="1555.2" fill="#ffffff" y="-172.799993" height="2073.599912" fill-opacity="1"/><rect x="-129.6" width="1555.2" fill="#000000" y="-172.799993" height="2073.599912" fill-opacity="1"/><g fill="#ffffff" fill-opacity="1"><g transform="translate(26.730205, 768.671864)"><g><path d="M 75.53125 -38.625 L 75.53125 -7.796875 C 71.488281 -4.878906 67.175781 -2.703125 62.59375 -1.265625 C 58.019531 0.171875 53.003906 0.890625 47.546875 0.890625 C 41.078125 0.890625 35.242188 -0.109375 30.046875 -2.109375 C 24.859375 -4.109375 20.421875 -6.910156 16.734375 -10.515625 C 13.054688 -14.117188 10.222656 -18.441406 8.234375 -23.484375 C 6.253906 -28.535156 5.265625 -34.085938 5.265625 -40.140625 C 5.265625 -46.273438 6.226562 -51.863281 8.15625 -56.90625 C 10.082031 -61.957031 12.820312 -66.285156 16.375 -69.890625 C 19.925781 -73.492188 24.242188 -76.285156 29.328125 -78.265625 C 34.410156 -80.253906 40.09375 -81.25 46.375 -81.25 C 49.550781 -81.25 52.503906 -81.015625 55.234375 -80.546875 C 57.960938 -80.078125 60.484375 -79.398438 62.796875 -78.515625 C 65.117188 -77.640625 67.269531 -76.578125 69.25 -75.328125 C 71.226562 -74.078125 73.078125 -72.664062 74.796875 -71.09375 L 71.71875 -66.15625 C 71.226562 -65.414062 70.597656 -64.941406 69.828125 -64.734375 C 69.066406 -64.523438 68.21875 -64.703125 67.28125 -65.265625 C 66.382812 -65.785156 65.359375 -66.421875 64.203125 -67.171875 C 63.046875 -67.921875 61.632812 -68.640625 59.96875 -69.328125 C 58.300781 -70.023438 56.335938 -70.613281 54.078125 -71.09375 C 51.816406 -71.582031 49.132812 -71.828125 46.03125 -71.828125 C 41.507812 -71.828125 37.414062 -71.085938 33.75 -69.609375 C 30.09375 -68.128906 26.972656 -66.015625 24.390625 -63.265625 C 21.804688 -60.523438 19.820312 -57.203125 18.4375 -53.296875 C 17.0625 -49.390625 16.375 -45.003906 16.375 -40.140625 C 16.375 -35.097656 17.09375 -30.585938 18.53125 -26.609375 C 19.96875 -22.628906 22.019531 -19.242188 24.6875 -16.453125 C 27.363281 -13.671875 30.609375 -11.550781 34.421875 -10.09375 C 38.234375 -8.632812 42.515625 -7.90625 47.265625 -7.90625 C 51.003906 -7.90625 54.320312 -8.320312 57.21875 -9.15625 C 60.113281 -10 62.945312 -11.171875 65.71875 -12.671875 L 65.71875 -30.328125 L 53.203125 -30.328125 C 52.492188 -30.328125 51.925781 -30.53125 51.5 -30.9375 C 51.070312 -31.351562 50.859375 -31.863281 50.859375 -32.46875 L 50.859375 -38.625 Z M 75.53125 -38.625 "/></g></g></g><g fill="#ffffff" fill-opacity="1"><g transform="translate(106.402198, 768.671864)"><g><path d="M 45.921875 -34.59375 C 45.921875 -36.914062 45.59375 -39.035156 44.9375 -40.953125 C 44.28125 -42.878906 43.328125 -44.539062 42.078125 -45.9375 C 40.828125 -47.34375 39.300781 -48.425781 37.5 -49.1875 C 35.707031 -49.957031 33.675781 -50.34375 31.40625 -50.34375 C 26.613281 -50.34375 22.828125 -48.953125 20.046875 -46.171875 C 17.265625 -43.390625 15.535156 -39.53125 14.859375 -34.59375 Z M 54 -7.96875 C 52.757812 -6.46875 51.28125 -5.164062 49.5625 -4.0625 C 47.84375 -2.957031 46 -2.050781 44.03125 -1.34375 C 42.070312 -0.632812 40.046875 -0.101562 37.953125 0.25 C 35.859375 0.601562 33.785156 0.78125 31.734375 0.78125 C 27.804688 0.78125 24.1875 0.117188 20.875 -1.203125 C 17.570312 -2.535156 14.710938 -4.476562 12.296875 -7.03125 C 9.890625 -9.59375 8.015625 -12.757812 6.671875 -16.53125 C 5.328125 -20.3125 4.65625 -24.648438 4.65625 -29.546875 C 4.65625 -33.515625 5.257812 -37.21875 6.46875 -40.65625 C 7.6875 -44.09375 9.4375 -47.070312 11.71875 -49.59375 C 14 -52.113281 16.78125 -54.09375 20.0625 -55.53125 C 23.351562 -56.976562 27.054688 -57.703125 31.171875 -57.703125 C 34.578125 -57.703125 37.726562 -57.128906 40.625 -55.984375 C 43.519531 -54.847656 46.019531 -53.203125 48.125 -51.046875 C 50.238281 -48.898438 51.894531 -46.25 53.09375 -43.09375 C 54.289062 -39.9375 54.890625 -36.335938 54.890625 -32.296875 C 54.890625 -30.722656 54.722656 -29.675781 54.390625 -29.15625 C 54.054688 -28.632812 53.421875 -28.375 52.484375 -28.375 L 14.515625 -28.375 C 14.628906 -24.78125 15.125 -21.65625 16 -19 C 16.882812 -16.351562 18.109375 -14.140625 19.671875 -12.359375 C 21.242188 -10.585938 23.113281 -9.257812 25.28125 -8.375 C 27.457031 -7.5 29.890625 -7.0625 32.578125 -7.0625 C 35.078125 -7.0625 37.234375 -7.347656 39.046875 -7.921875 C 40.859375 -8.503906 42.421875 -9.132812 43.734375 -9.8125 C 45.046875 -10.488281 46.140625 -11.113281 47.015625 -11.6875 C 47.890625 -12.269531 48.644531 -12.5625 49.28125 -12.5625 C 50.101562 -12.5625 50.738281 -12.242188 51.1875 -11.609375 Z M 54 -7.96875 "/></g></g></g><g fill="#ffffff" fill-opacity="1"><g transform="translate(163.366743, 768.671864)"><g><path d="M 25.34375 0.890625 C 20.851562 0.890625 17.398438 -0.359375 14.984375 -2.859375 C 12.578125 -5.359375 11.375 -8.96875 11.375 -13.6875 L 11.375 -48.4375 L 4.546875 -48.4375 C 3.941406 -48.4375 3.429688 -48.613281 3.015625 -48.96875 C 2.609375 -49.332031 2.40625 -49.882812 2.40625 -50.625 L 2.40625 -54.609375 L 11.71875 -55.796875 L 14.015625 -73.34375 C 14.128906 -73.90625 14.378906 -74.363281 14.765625 -74.71875 C 15.160156 -75.070312 15.675781 -75.25 16.3125 -75.25 L 21.359375 -75.25 L 21.359375 -55.671875 L 37.796875 -55.671875 L 37.796875 -48.4375 L 21.359375 -48.4375 L 21.359375 -14.359375 C 21.359375 -11.960938 21.9375 -10.1875 23.09375 -9.03125 C 24.257812 -7.875 25.757812 -7.296875 27.59375 -7.296875 C 28.632812 -7.296875 29.535156 -7.429688 30.296875 -7.703125 C 31.066406 -7.984375 31.734375 -8.289062 32.296875 -8.625 C 32.859375 -8.96875 33.332031 -9.28125 33.71875 -9.5625 C 34.113281 -9.84375 34.460938 -9.984375 34.765625 -9.984375 C 35.285156 -9.984375 35.753906 -9.664062 36.171875 -9.03125 L 39.078125 -4.265625 C 37.359375 -2.648438 35.285156 -1.382812 32.859375 -0.46875 C 30.429688 0.4375 27.925781 0.890625 25.34375 0.890625 Z M 25.34375 0.890625 "/></g></g></g><g fill="#ffffff" fill-opacity="1"><g transform="translate(201.324286, 768.671864)"><g/></g></g><g fill="#ffffff" fill-opacity="1"><g transform="translate(227.787911, 768.671864)"><g><path d="M 59.828125 -8.859375 L 59.765625 0 L 10.265625 0 L 10.265625 -80.34375 L 59.765625 -80.34375 L 59.765625 -71.484375 L 21.140625 -71.484375 L 21.140625 -44.796875 L 52.421875 -44.796875 L 52.421875 -36.28125 L 21.140625 -36.28125 L 21.140625 -8.859375 Z M 59.828125 -8.859375 "/></g></g></g><g fill="#ffffff" fill-opacity="1"><g transform="translate(290.30314, 768.671864)"><g><path d="M 38.6875 -25.5625 C 34.09375 -25.414062 30.175781 -25.050781 26.9375 -24.46875 C 23.707031 -23.894531 21.070312 -23.140625 19.03125 -22.203125 C 17 -21.265625 15.523438 -20.160156 14.609375 -18.890625 C 13.691406 -17.617188 13.234375 -16.203125 13.234375 -14.640625 C 13.234375 -13.140625 13.472656 -11.847656 13.953125 -10.765625 C 14.441406 -9.679688 15.109375 -8.789062 15.953125 -8.09375 C 16.796875 -7.40625 17.785156 -6.898438 18.921875 -6.578125 C 20.066406 -6.265625 21.289062 -6.109375 22.59375 -6.109375 C 24.351562 -6.109375 25.960938 -6.285156 27.421875 -6.640625 C 28.878906 -6.992188 30.25 -7.507812 31.53125 -8.1875 C 32.820312 -8.863281 34.054688 -9.664062 35.234375 -10.59375 C 36.410156 -11.53125 37.5625 -12.597656 38.6875 -13.796875 Z M 6.453125 -48.78125 C 9.585938 -51.8125 12.96875 -54.070312 16.59375 -55.5625 C 20.21875 -57.0625 24.238281 -57.8125 28.65625 -57.8125 C 31.832031 -57.8125 34.648438 -57.285156 37.109375 -56.234375 C 39.578125 -55.191406 41.648438 -53.734375 43.328125 -51.859375 C 45.015625 -49.992188 46.285156 -47.734375 47.140625 -45.078125 C 48.003906 -42.421875 48.4375 -39.503906 48.4375 -36.328125 L 48.4375 0 L 44.015625 0 C 43.046875 0 42.296875 -0.15625 41.765625 -0.46875 C 41.242188 -0.789062 40.832031 -1.421875 40.53125 -2.359375 L 39.421875 -7.734375 C 37.921875 -6.347656 36.457031 -5.125 35.03125 -4.0625 C 33.613281 -3 32.117188 -2.101562 30.546875 -1.375 C 28.984375 -0.644531 27.3125 -0.0859375 25.53125 0.296875 C 23.757812 0.691406 21.789062 0.890625 19.625 0.890625 C 17.414062 0.890625 15.335938 0.582031 13.390625 -0.03125 C 11.453125 -0.644531 9.765625 -1.566406 8.328125 -2.796875 C 6.890625 -4.035156 5.75 -5.597656 4.90625 -7.484375 C 4.0625 -9.367188 3.640625 -11.601562 3.640625 -14.1875 C 3.640625 -16.425781 4.253906 -18.582031 5.484375 -20.65625 C 6.722656 -22.738281 8.722656 -24.582031 11.484375 -26.1875 C 14.253906 -27.789062 17.863281 -29.109375 22.3125 -30.140625 C 26.757812 -31.171875 32.21875 -31.757812 38.6875 -31.90625 L 38.6875 -36.328125 C 38.6875 -40.742188 37.734375 -44.082031 35.828125 -46.34375 C 33.921875 -48.601562 31.132812 -49.734375 27.46875 -49.734375 C 25.007812 -49.734375 22.945312 -49.425781 21.28125 -48.8125 C 19.613281 -48.195312 18.171875 -47.503906 16.953125 -46.734375 C 15.742188 -45.960938 14.695312 -45.269531 13.8125 -44.65625 C 12.9375 -44.039062 12.070312 -43.734375 11.21875 -43.734375 C 10.539062 -43.734375 9.957031 -43.910156 9.46875 -44.265625 C 8.988281 -44.617188 8.582031 -45.054688 8.25 -45.578125 Z M 6.453125 -48.78125 "/></g></g></g><g fill="#ffffff" fill-opacity="1"><g transform="translate(343.791492, 768.671864)"><g><path d="M 17.375 -45.421875 C 19.175781 -49.304688 21.382812 -52.34375 24 -54.53125 C 26.613281 -56.71875 29.8125 -57.8125 33.59375 -57.8125 C 34.78125 -57.8125 35.925781 -57.679688 37.03125 -57.421875 C 38.132812 -57.160156 39.117188 -56.75 39.984375 -56.1875 L 39.25 -48.71875 C 39.019531 -47.789062 38.457031 -47.328125 37.5625 -47.328125 C 37.039062 -47.328125 36.273438 -47.4375 35.265625 -47.65625 C 34.253906 -47.882812 33.113281 -48 31.84375 -48 C 30.050781 -48 28.453125 -47.734375 27.046875 -47.203125 C 25.648438 -46.679688 24.398438 -45.90625 23.296875 -44.875 C 22.191406 -43.851562 21.203125 -42.582031 20.328125 -41.0625 C 19.453125 -39.550781 18.65625 -37.828125 17.9375 -35.890625 L 17.9375 0 L 7.90625 0 L 7.90625 -56.796875 L 13.625 -56.796875 C 14.707031 -56.796875 15.453125 -56.585938 15.859375 -56.171875 C 16.273438 -55.765625 16.554688 -55.054688 16.703125 -54.046875 Z M 17.375 -45.421875 "/></g></g></g><g fill="#ffffff" fill-opacity="1"><g transform="translate(382.365752, 768.671864)"><g><path d="M 18.21875 -82.59375 L 18.21875 0 L 8.25 0 L 8.25 -82.59375 Z M 18.21875 -82.59375 "/></g></g></g><g fill="#ffffff" fill-opacity="1"><g transform="translate(406.586645, 768.671864)"><g><path d="M 56.90625 -56.796875 L 25.234375 16.765625 C 24.898438 17.515625 24.476562 18.113281 23.96875 18.5625 C 23.46875 19.007812 22.691406 19.234375 21.640625 19.234375 L 14.234375 19.234375 L 24.609375 -3.3125 L 1.171875 -56.796875 L 9.8125 -56.796875 C 10.675781 -56.796875 11.359375 -56.582031 11.859375 -56.15625 C 12.359375 -55.726562 12.703125 -55.25 12.890625 -54.71875 L 28.09375 -18.953125 C 28.6875 -17.378906 29.191406 -15.734375 29.609375 -14.015625 C 30.128906 -15.773438 30.6875 -17.441406 31.28125 -19.015625 L 46.03125 -54.71875 C 46.257812 -55.320312 46.644531 -55.816406 47.1875 -56.203125 C 47.726562 -56.597656 48.332031 -56.796875 49 -56.796875 Z M 56.90625 -56.796875 "/></g></g></g><g fill="#ffffff" fill-opacity="1"><g transform="translate(462.149455, 768.671864)"><g/></g></g><g fill="#ffffff" fill-opacity="1"><g transform="translate(488.613064, 768.671864)"><g><path d="M 52.9375 -29.828125 L 40.3125 -62.515625 C 39.9375 -63.484375 39.539062 -64.613281 39.125 -65.90625 C 38.71875 -67.195312 38.328125 -68.570312 37.953125 -70.03125 C 37.171875 -67 36.367188 -64.476562 35.546875 -62.46875 L 22.9375 -29.828125 Z M 75.578125 0 L 67.171875 0 C 66.203125 0 65.414062 -0.238281 64.8125 -0.71875 C 64.21875 -1.207031 63.769531 -1.828125 63.46875 -2.578125 L 55.953125 -21.984375 L 19.90625 -21.984375 L 12.390625 -2.578125 C 12.171875 -1.898438 11.742188 -1.300781 11.109375 -0.78125 C 10.472656 -0.257812 9.6875 0 8.75 0 L 0.34375 0 L 32.46875 -80.34375 L 43.453125 -80.34375 Z M 75.578125 0 "/></g></g></g><g fill="#ffffff" fill-opacity="1"><g transform="translate(562.285813, 768.671864)"><g><path d="M 47.4375 -46.703125 C 47.132812 -46.296875 46.832031 -45.976562 46.53125 -45.75 C 46.238281 -45.53125 45.832031 -45.421875 45.3125 -45.421875 C 44.75 -45.421875 44.128906 -45.648438 43.453125 -46.109375 C 42.773438 -46.578125 41.941406 -47.09375 40.953125 -47.65625 C 39.960938 -48.21875 38.75 -48.734375 37.3125 -49.203125 C 35.875 -49.671875 34.109375 -49.90625 32.015625 -49.90625 C 29.210938 -49.90625 26.742188 -49.410156 24.609375 -48.421875 C 22.484375 -47.429688 20.695312 -46 19.25 -44.125 C 17.8125 -42.257812 16.726562 -40 16 -37.34375 C 15.28125 -34.6875 14.921875 -31.710938 14.921875 -28.421875 C 14.921875 -24.984375 15.3125 -21.925781 16.09375 -19.25 C 16.875 -16.582031 17.984375 -14.34375 19.421875 -12.53125 C 20.867188 -10.71875 22.609375 -9.332031 24.640625 -8.375 C 26.679688 -7.425781 28.972656 -6.953125 31.515625 -6.953125 C 33.941406 -6.953125 35.9375 -7.238281 37.5 -7.8125 C 39.070312 -8.394531 40.375 -9.039062 41.40625 -9.75 C 42.4375 -10.46875 43.296875 -11.113281 43.984375 -11.6875 C 44.679688 -12.269531 45.363281 -12.5625 46.03125 -12.5625 C 46.851562 -12.5625 47.488281 -12.242188 47.9375 -11.609375 L 50.75 -7.96875 C 49.507812 -6.425781 48.101562 -5.113281 46.53125 -4.03125 C 44.96875 -2.945312 43.28125 -2.039062 41.46875 -1.3125 C 39.65625 -0.582031 37.753906 -0.0507812 35.765625 0.28125 C 33.785156 0.613281 31.769531 0.78125 29.71875 0.78125 C 26.164062 0.78125 22.863281 0.128906 19.8125 -1.171875 C 16.769531 -2.484375 14.125 -4.378906 11.875 -6.859375 C 9.632812 -9.347656 7.878906 -12.40625 6.609375 -16.03125 C 5.335938 -19.65625 4.703125 -23.785156 4.703125 -28.421875 C 4.703125 -32.648438 5.289062 -36.554688 6.46875 -40.140625 C 7.65625 -43.734375 9.378906 -46.828125 11.640625 -49.421875 C 13.898438 -52.023438 16.679688 -54.054688 19.984375 -55.515625 C 23.296875 -56.972656 27.101562 -57.703125 31.40625 -57.703125 C 35.40625 -57.703125 38.925781 -57.054688 41.96875 -55.765625 C 45.007812 -54.472656 47.710938 -52.648438 50.078125 -50.296875 Z M 47.4375 -46.703125 "/></g></g></g><g fill="#ffffff" fill-opacity="1"><g transform="translate(613.587513, 768.671864)"><g><path d="M 47.4375 -46.703125 C 47.132812 -46.296875 46.832031 -45.976562 46.53125 -45.75 C 46.238281 -45.53125 45.832031 -45.421875 45.3125 -45.421875 C 44.75 -45.421875 44.128906 -45.648438 43.453125 -46.109375 C 42.773438 -46.578125 41.941406 -47.09375 40.953125 -47.65625 C 39.960938 -48.21875 38.75 -48.734375 37.3125 -49.203125 C 35.875 -49.671875 34.109375 -49.90625 32.015625 -49.90625 C 29.210938 -49.90625 26.742188 -49.410156 24.609375 -48.421875 C 22.484375 -47.429688 20.695312 -46 19.25 -44.125 C 17.8125 -42.257812 16.726562 -40 16 -37.34375 C 15.28125 -34.6875 14.921875 -31.710938 14.921875 -28.421875 C 14.921875 -24.984375 15.3125 -21.925781 16.09375 -19.25 C 16.875 -16.582031 17.984375 -14.34375 19.421875 -12.53125 C 20.867188 -10.71875 22.609375 -9.332031 24.640625 -8.375 C 26.679688 -7.425781 28.972656 -6.953125 31.515625 -6.953125 C 33.941406 -6.953125 35.9375 -7.238281 37.5 -7.8125 C 39.070312 -8.394531 40.375 -9.039062 41.40625 -9.75 C 42.4375 -10.46875 43.296875 -11.113281 43.984375 -11.6875 C 44.679688 -12.269531 45.363281 -12.5625 46.03125 -12.5625 C 46.851562 -12.5625 47.488281 -12.242188 47.9375 -11.609375 L 50.75 -7.96875 C 49.507812 -6.425781 48.101562 -5.113281 46.53125 -4.03125 C 44.96875 -2.945312 43.28125 -2.039062 41.46875 -1.3125 C 39.65625 -0.582031 37.753906 -0.0507812 35.765625 0.28125 C 33.785156 0.613281 31.769531 0.78125 29.71875 0.78125 C 26.164062 0.78125 22.863281 0.128906 19.8125 -1.171875 C 16.769531 -2.484375 14.125 -4.378906 11.875 -6.859375 C 9.632812 -9.347656 7.878906 -12.40625 6.609375 -16.03125 C 5.335938 -19.65625 4.703125 -23.785156 4.703125 -28.421875 C 4.703125 -32.648438 5.289062 -36.554688 6.46875 -40.140625 C 7.65625 -43.734375 9.378906 -46.828125 11.640625 -49.421875 C 13.898438 -52.023438 16.679688 -54.054688 19.984375 -55.515625 C 23.296875 -56.972656 27.101562 -57.703125 31.40625 -57.703125 C 35.40625 -57.703125 38.925781 -57.054688 41.96875 -55.765625 C 45.007812 -54.472656 47.710938 -52.648438 50.078125 -50.296875 Z M 47.4375 -46.703125 "/></g></g></g><g fill="#ffffff" fill-opacity="1"><g transform="translate(664.889213, 768.671864)"><g><path d="M 45.921875 -34.59375 C 45.921875 -36.914062 45.59375 -39.035156 44.9375 -40.953125 C 44.28125 -42.878906 43.328125 -44.539062 42.078125 -45.9375 C 40.828125 -47.34375 39.300781 -48.425781 37.5 -49.1875 C 35.707031 -49.957031 33.675781 -50.34375 31.40625 -50.34375 C 26.613281 -50.34375 22.828125 -48.953125 20.046875 -46.171875 C 17.265625 -43.390625 15.535156 -39.53125 14.859375 -34.59375 Z M 54 -7.96875 C 52.757812 -6.46875 51.28125 -5.164062 49.5625 -4.0625 C 47.84375 -2.957031 46 -2.050781 44.03125 -1.34375 C 42.070312 -0.632812 40.046875 -0.101562 37.953125 0.25 C 35.859375 0.601562 33.785156 0.78125 31.734375 0.78125 C 27.804688 0.78125 24.1875 0.117188 20.875 -1.203125 C 17.570312 -2.535156 14.710938 -4.476562 12.296875 -7.03125 C 9.890625 -9.59375 8.015625 -12.757812 6.671875 -16.53125 C 5.328125 -20.3125 4.65625 -24.648438 4.65625 -29.546875 C 4.65625 -33.515625 5.257812 -37.21875 6.46875 -40.65625 C 7.6875 -44.09375 9.4375 -47.070312 11.71875 -49.59375 C 14 -52.113281 16.78125 -54.09375 20.0625 -55.53125 C 23.351562 -56.976562 27.054688 -57.703125 31.171875 -57.703125 C 34.578125 -57.703125 37.726562 -57.128906 40.625 -55.984375 C 43.519531 -54.847656 46.019531 -53.203125 48.125 -51.046875 C 50.238281 -48.898438 51.894531 -46.25 53.09375 -43.09375 C 54.289062 -39.9375 54.890625 -36.335938 54.890625 -32.296875 C 54.890625 -30.722656 54.722656 -29.675781 54.390625 -29.15625 C 54.054688 -28.632812 53.421875 -28.375 52.484375 -28.375 L 14.515625 -28.375 C 14.628906 -24.78125 15.125 -21.65625 16 -19 C 16.882812 -16.351562 18.109375 -14.140625 19.671875 -12.359375 C 21.242188 -10.585938 23.113281 -9.257812 25.28125 -8.375 C 27.457031 -7.5 29.890625 -7.0625 32.578125 -7.0625 C 35.078125 -7.0625 37.234375 -7.347656 39.046875 -7.921875 C 40.859375 -8.503906 42.421875 -9.132812 43.734375 -9.8125 C 45.046875 -10.488281 46.140625 -11.113281 47.015625 -11.6875 C 47.890625 -12.269531 48.644531 -12.5625 49.28125 -12.5625 C 50.101562 -12.5625 50.738281 -12.242188 51.1875 -11.609375 Z M 54 -7.96875 "/></g></g></g><g fill="#ffffff" fill-opacity="1"><g transform="translate(721.853745, 768.671864)"><g><path d="M 40.984375 -47.4375 C 40.535156 -46.613281 39.84375 -46.203125 38.90625 -46.203125 C 38.351562 -46.203125 37.71875 -46.40625 37 -46.8125 C 36.289062 -47.226562 35.421875 -47.6875 34.390625 -48.1875 C 33.367188 -48.695312 32.144531 -49.164062 30.71875 -49.59375 C 29.300781 -50.019531 27.625 -50.234375 25.6875 -50.234375 C 24 -50.234375 22.484375 -50.019531 21.140625 -49.59375 C 19.796875 -49.164062 18.644531 -48.578125 17.6875 -47.828125 C 16.738281 -47.078125 16.007812 -46.207031 15.5 -45.21875 C 15 -44.226562 14.75 -43.15625 14.75 -42 C 14.75 -40.539062 15.164062 -39.320312 16 -38.34375 C 16.84375 -37.375 17.957031 -36.535156 19.34375 -35.828125 C 20.726562 -35.117188 22.296875 -34.492188 24.046875 -33.953125 C 25.804688 -33.410156 27.609375 -32.828125 29.453125 -32.203125 C 31.304688 -31.585938 33.113281 -30.90625 34.875 -30.15625 C 36.632812 -29.414062 38.203125 -28.484375 39.578125 -27.359375 C 40.960938 -26.242188 42.078125 -24.867188 42.921875 -23.234375 C 43.765625 -21.609375 44.1875 -19.65625 44.1875 -17.375 C 44.1875 -14.757812 43.71875 -12.335938 42.78125 -10.109375 C 41.84375 -7.890625 40.457031 -5.96875 38.625 -4.34375 C 36.800781 -2.71875 34.5625 -1.4375 31.90625 -0.5 C 29.25 0.425781 26.179688 0.890625 22.703125 0.890625 C 18.742188 0.890625 15.15625 0.25 11.9375 -1.03125 C 8.726562 -2.320312 6 -3.976562 3.75 -6 L 6.109375 -9.8125 C 6.410156 -10.300781 6.765625 -10.675781 7.171875 -10.9375 C 7.585938 -11.195312 8.113281 -11.328125 8.75 -11.328125 C 9.414062 -11.328125 10.125 -11.0625 10.875 -10.53125 C 11.625 -10.007812 12.53125 -9.429688 13.59375 -8.796875 C 14.65625 -8.160156 15.953125 -7.582031 17.484375 -7.0625 C 19.023438 -6.539062 20.9375 -6.28125 23.21875 -6.28125 C 25.15625 -6.28125 26.851562 -6.53125 28.3125 -7.03125 C 29.769531 -7.539062 30.984375 -8.222656 31.953125 -9.078125 C 32.929688 -9.941406 33.648438 -10.929688 34.109375 -12.046875 C 34.578125 -13.171875 34.8125 -14.367188 34.8125 -15.640625 C 34.8125 -17.210938 34.390625 -18.507812 33.546875 -19.53125 C 32.710938 -20.5625 31.601562 -21.441406 30.21875 -22.171875 C 28.832031 -22.898438 27.253906 -23.535156 25.484375 -24.078125 C 23.710938 -24.617188 21.898438 -25.1875 20.046875 -25.78125 C 18.191406 -26.382812 16.375 -27.066406 14.59375 -27.828125 C 12.820312 -28.597656 11.242188 -29.5625 9.859375 -30.71875 C 8.484375 -31.882812 7.375 -33.316406 6.53125 -35.015625 C 5.6875 -36.710938 5.265625 -38.78125 5.265625 -41.21875 C 5.265625 -43.382812 5.710938 -45.46875 6.609375 -47.46875 C 7.515625 -49.46875 8.828125 -51.222656 10.546875 -52.734375 C 12.265625 -54.242188 14.375 -55.445312 16.875 -56.34375 C 19.382812 -57.25 22.242188 -57.703125 25.453125 -57.703125 C 29.191406 -57.703125 32.546875 -57.109375 35.515625 -55.921875 C 38.492188 -54.742188 41.066406 -53.128906 43.234375 -51.078125 Z M 40.984375 -47.4375 "/></g></g></g><g fill="#ffffff" fill-opacity="1"><g transform="translate(768.165412, 768.671864)"><g><path d="M 40.984375 -47.4375 C 40.535156 -46.613281 39.84375 -46.203125 38.90625 -46.203125 C 38.351562 -46.203125 37.71875 -46.40625 37 -46.8125 C 36.289062 -47.226562 35.421875 -47.6875 34.390625 -48.1875 C 33.367188 -48.695312 32.144531 -49.164062 30.71875 -49.59375 C 29.300781 -50.019531 27.625 -50.234375 25.6875 -50.234375 C 24 -50.234375 22.484375 -50.019531 21.140625 -49.59375 C 19.796875 -49.164062 18.644531 -48.578125 17.6875 -47.828125 C 16.738281 -47.078125 16.007812 -46.207031 15.5 -45.21875 C 15 -44.226562 14.75 -43.15625 14.75 -42 C 14.75 -40.539062 15.164062 -39.320312 16 -38.34375 C 16.84375 -37.375 17.957031 -36.535156 19.34375 -35.828125 C 20.726562 -35.117188 22.296875 -34.492188 24.046875 -33.953125 C 25.804688 -33.410156 27.609375 -32.828125 29.453125 -32.203125 C 31.304688 -31.585938 33.113281 -30.90625 34.875 -30.15625 C 36.632812 -29.414062 38.203125 -28.484375 39.578125 -27.359375 C 40.960938 -26.242188 42.078125 -24.867188 42.921875 -23.234375 C 43.765625 -21.609375 44.1875 -19.65625 44.1875 -17.375 C 44.1875 -14.757812 43.71875 -12.335938 42.78125 -10.109375 C 41.84375 -7.890625 40.457031 -5.96875 38.625 -4.34375 C 36.800781 -2.71875 34.5625 -1.4375 31.90625 -0.5 C 29.25 0.425781 26.179688 0.890625 22.703125 0.890625 C 18.742188 0.890625 15.15625 0.25 11.9375 -1.03125 C 8.726562 -2.320312 6 -3.976562 3.75 -6 L 6.109375 -9.8125 C 6.410156 -10.300781 6.765625 -10.675781 7.171875 -10.9375 C 7.585938 -11.195312 8.113281 -11.328125 8.75 -11.328125 C 9.414062 -11.328125 10.125 -11.0625 10.875 -10.53125 C 11.625 -10.007812 12.53125 -9.429688 13.59375 -8.796875 C 14.65625 -8.160156 15.953125 -7.582031 17.484375 -7.0625 C 19.023438 -6.539062 20.9375 -6.28125 23.21875 -6.28125 C 25.15625 -6.28125 26.851562 -6.53125 28.3125 -7.03125 C 29.769531 -7.539062 30.984375 -8.222656 31.953125 -9.078125 C 32.929688 -9.941406 33.648438 -10.929688 34.109375 -12.046875 C 34.578125 -13.171875 34.8125 -14.367188 34.8125 -15.640625 C 34.8125 -17.210938 34.390625 -18.507812 33.546875 -19.53125 C 32.710938 -20.5625 31.601562 -21.441406 30.21875 -22.171875 C 28.832031 -22.898438 27.253906 -23.535156 25.484375 -24.078125 C 23.710938 -24.617188 21.898438 -25.1875 20.046875 -25.78125 C 18.191406 -26.382812 16.375 -27.066406 14.59375 -27.828125 C 12.820312 -28.597656 11.242188 -29.5625 9.859375 -30.71875 C 8.484375 -31.882812 7.375 -33.316406 6.53125 -35.015625 C 5.6875 -36.710938 5.265625 -38.78125 5.265625 -41.21875 C 5.265625 -43.382812 5.710938 -45.46875 6.609375 -47.46875 C 7.515625 -49.46875 8.828125 -51.222656 10.546875 -52.734375 C 12.265625 -54.242188 14.375 -55.445312 16.875 -56.34375 C 19.382812 -57.25 22.242188 -57.703125 25.453125 -57.703125 C 29.191406 -57.703125 32.546875 -57.109375 35.515625 -55.921875 C 38.492188 -54.742188 41.066406 -53.128906 43.234375 -51.078125 Z M 40.984375 -47.4375 "/></g></g></g><g fill="#ffffff" fill-opacity="1"><g transform="translate(814.477079, 768.671864)"><g/></g></g><g fill="#ffffff" fill-opacity="1"><g transform="translate(840.940689, 768.671864)"><g><path d="M 25.34375 0.890625 C 20.851562 0.890625 17.398438 -0.359375 14.984375 -2.859375 C 12.578125 -5.359375 11.375 -8.96875 11.375 -13.6875 L 11.375 -48.4375 L 4.546875 -48.4375 C 3.941406 -48.4375 3.429688 -48.613281 3.015625 -48.96875 C 2.609375 -49.332031 2.40625 -49.882812 2.40625 -50.625 L 2.40625 -54.609375 L 11.71875 -55.796875 L 14.015625 -73.34375 C 14.128906 -73.90625 14.378906 -74.363281 14.765625 -74.71875 C 15.160156 -75.070312 15.675781 -75.25 16.3125 -75.25 L 21.359375 -75.25 L 21.359375 -55.671875 L 37.796875 -55.671875 L 37.796875 -48.4375 L 21.359375 -48.4375 L 21.359375 -14.359375 C 21.359375 -11.960938 21.9375 -10.1875 23.09375 -9.03125 C 24.257812 -7.875 25.757812 -7.296875 27.59375 -7.296875 C 28.632812 -7.296875 29.535156 -7.429688 30.296875 -7.703125 C 31.066406 -7.984375 31.734375 -8.289062 32.296875 -8.625 C 32.859375 -8.96875 33.332031 -9.28125 33.71875 -9.5625 C 34.113281 -9.84375 34.460938 -9.984375 34.765625 -9.984375 C 35.285156 -9.984375 35.753906 -9.664062 36.171875 -9.03125 L 39.078125 -4.265625 C 37.359375 -2.648438 35.285156 -1.382812 32.859375 -0.46875 C 30.429688 0.4375 27.925781 0.890625 25.34375 0.890625 Z M 25.34375 0.890625 "/></g></g></g><g fill="#ffffff" fill-opacity="1"><g transform="translate(878.898217, 768.671864)"><g><path d="M 31.84375 -57.703125 C 36 -57.703125 39.738281 -57.007812 43.0625 -55.625 C 46.382812 -54.238281 49.222656 -52.273438 51.578125 -49.734375 C 53.929688 -47.191406 55.734375 -44.113281 56.984375 -40.5 C 58.242188 -36.894531 58.875 -32.867188 58.875 -28.421875 C 58.875 -23.941406 58.242188 -19.90625 56.984375 -16.3125 C 55.734375 -12.726562 53.929688 -9.664062 51.578125 -7.125 C 49.222656 -4.582031 46.382812 -2.628906 43.0625 -1.265625 C 39.738281 0.0976562 36 0.78125 31.84375 0.78125 C 27.65625 0.78125 23.890625 0.0976562 20.546875 -1.265625 C 17.203125 -2.628906 14.351562 -4.582031 12 -7.125 C 9.644531 -9.664062 7.835938 -12.726562 6.578125 -16.3125 C 5.328125 -19.90625 4.703125 -23.941406 4.703125 -28.421875 C 4.703125 -32.867188 5.328125 -36.894531 6.578125 -40.5 C 7.835938 -44.113281 9.644531 -47.191406 12 -49.734375 C 14.351562 -52.273438 17.203125 -54.238281 20.546875 -55.625 C 23.890625 -57.007812 27.65625 -57.703125 31.84375 -57.703125 Z M 31.84375 -7.015625 C 37.457031 -7.015625 41.644531 -8.890625 44.40625 -12.640625 C 47.175781 -16.398438 48.5625 -21.644531 48.5625 -28.375 C 48.5625 -35.132812 47.175781 -40.398438 44.40625 -44.171875 C 41.644531 -47.953125 37.457031 -49.84375 31.84375 -49.84375 C 29.007812 -49.84375 26.535156 -49.359375 24.421875 -48.390625 C 22.304688 -47.421875 20.546875 -46.019531 19.140625 -44.1875 C 17.742188 -42.351562 16.695312 -40.097656 16 -37.421875 C 15.3125 -34.753906 14.96875 -31.738281 14.96875 -28.375 C 14.96875 -21.644531 16.359375 -16.398438 19.140625 -12.640625 C 21.929688 -8.890625 26.164062 -7.015625 31.84375 -7.015625 Z M 31.84375 -7.015625 "/></g></g></g><g fill="#ffffff" fill-opacity="1"><g transform="translate(940.236049, 768.671864)"><g/></g></g><g fill="#ffffff" fill-opacity="1"><g transform="translate(966.699659, 768.671864)"><g><path d="M 38.46875 -8.640625 C 41.570312 -8.640625 44.242188 -8.992188 46.484375 -9.703125 C 48.722656 -10.410156 50.5625 -11.410156 52 -12.703125 C 53.4375 -13.992188 54.492188 -15.523438 55.171875 -17.296875 C 55.847656 -19.078125 56.1875 -21.03125 56.1875 -23.15625 C 56.1875 -27.300781 54.707031 -30.578125 51.75 -32.984375 C 48.800781 -35.398438 44.375 -36.609375 38.46875 -36.609375 L 21.078125 -36.609375 L 21.078125 -8.640625 Z M 21.078125 -71.765625 L 21.078125 -44.359375 L 35.4375 -44.359375 C 38.5 -44.359375 41.160156 -44.691406 43.421875 -45.359375 C 45.679688 -46.035156 47.550781 -46.96875 49.03125 -48.15625 C 50.507812 -49.351562 51.601562 -50.800781 52.3125 -52.5 C 53.019531 -54.207031 53.375 -56.070312 53.375 -58.09375 C 53.375 -62.832031 51.953125 -66.296875 49.109375 -68.484375 C 46.273438 -70.671875 41.867188 -71.765625 35.890625 -71.765625 Z M 35.890625 -80.34375 C 40.816406 -80.34375 45.066406 -79.859375 48.640625 -78.890625 C 52.210938 -77.921875 55.144531 -76.535156 57.4375 -74.734375 C 59.738281 -72.941406 61.429688 -70.742188 62.515625 -68.140625 C 63.597656 -65.546875 64.140625 -62.625 64.140625 -59.375 C 64.140625 -57.394531 63.832031 -55.5 63.21875 -53.6875 C 62.601562 -51.875 61.675781 -50.179688 60.4375 -48.609375 C 59.207031 -47.046875 57.648438 -45.632812 55.765625 -44.375 C 53.878906 -43.125 51.664062 -42.109375 49.125 -41.328125 C 55.03125 -40.203125 59.46875 -38.097656 62.4375 -35.015625 C 65.40625 -31.929688 66.890625 -27.882812 66.890625 -22.875 C 66.890625 -19.476562 66.265625 -16.375 65.015625 -13.5625 C 63.765625 -10.757812 61.929688 -8.347656 59.515625 -6.328125 C 57.109375 -4.316406 54.144531 -2.757812 50.625 -1.65625 C 47.113281 -0.550781 43.113281 0 38.625 0 L 10.265625 0 L 10.265625 -80.34375 Z M 35.890625 -80.34375 "/></g></g></g><g fill="#ffffff" fill-opacity="1"><g transform="translate(1036.952295, 768.671864)"><g><path d="M 45.921875 -34.59375 C 45.921875 -36.914062 45.59375 -39.035156 44.9375 -40.953125 C 44.28125 -42.878906 43.328125 -44.539062 42.078125 -45.9375 C 40.828125 -47.34375 39.300781 -48.425781 37.5 -49.1875 C 35.707031 -49.957031 33.675781 -50.34375 31.40625 -50.34375 C 26.613281 -50.34375 22.828125 -48.953125 20.046875 -46.171875 C 17.265625 -43.390625 15.535156 -39.53125 14.859375 -34.59375 Z M 54 -7.96875 C 52.757812 -6.46875 51.28125 -5.164062 49.5625 -4.0625 C 47.84375 -2.957031 46 -2.050781 44.03125 -1.34375 C 42.070312 -0.632812 40.046875 -0.101562 37.953125 0.25 C 35.859375 0.601562 33.785156 0.78125 31.734375 0.78125 C 27.804688 0.78125 24.1875 0.117188 20.875 -1.203125 C 17.570312 -2.535156 14.710938 -4.476562 12.296875 -7.03125 C 9.890625 -9.59375 8.015625 -12.757812 6.671875 -16.53125 C 5.328125 -20.3125 4.65625 -24.648438 4.65625 -29.546875 C 4.65625 -33.515625 5.257812 -37.21875 6.46875 -40.65625 C 7.6875 -44.09375 9.4375 -47.070312 11.71875 -49.59375 C 14 -52.113281 16.78125 -54.09375 20.0625 -55.53125 C 23.351562 -56.976562 27.054688 -57.703125 31.171875 -57.703125 C 34.578125 -57.703125 37.726562 -57.128906 40.625 -55.984375 C 43.519531 -54.847656 46.019531 -53.203125 48.125 -51.046875 C 50.238281 -48.898438 51.894531 -46.25 53.09375 -43.09375 C 54.289062 -39.9375 54.890625 -36.335938 54.890625 -32.296875 C 54.890625 -30.722656 54.722656 -29.675781 54.390625 -29.15625 C 54.054688 -28.632812 53.421875 -28.375 52.484375 -28.375 L 14.515625 -28.375 C 14.628906 -24.78125 15.125 -21.65625 16 -19 C 16.882812 -16.351562 18.109375 -14.140625 19.671875 -12.359375 C 21.242188 -10.585938 23.113281 -9.257812 25.28125 -8.375 C 27.457031 -7.5 29.890625 -7.0625 32.578125 -7.0625 C 35.078125 -7.0625 37.234375 -7.347656 39.046875 -7.921875 C 40.859375 -8.503906 42.421875 -9.132812 43.734375 -9.8125 C 45.046875 -10.488281 46.140625 -11.113281 47.015625 -11.6875 C 47.890625 -12.269531 48.644531 -12.5625 49.28125 -12.5625 C 50.101562 -12.5625 50.738281 -12.242188 51.1875 -11.609375 Z M 54 -7.96875 "/></g></g></g><g fill="#ffffff" fill-opacity="1"><g transform="translate(1093.916884, 768.671864)"><g><path d="M 25.34375 0.890625 C 20.851562 0.890625 17.398438 -0.359375 14.984375 -2.859375 C 12.578125 -5.359375 11.375 -8.96875 11.375 -13.6875 L 11.375 -48.4375 L 4.546875 -48.4375 C 3.941406 -48.4375 3.429688 -48.613281 3.015625 -48.96875 C 2.609375 -49.332031 2.40625 -49.882812 2.40625 -50.625 L 2.40625 -54.609375 L 11.71875 -55.796875 L 14.015625 -73.34375 C 14.128906 -73.90625 14.378906 -74.363281 14.765625 -74.71875 C 15.160156 -75.070312 15.675781 -75.25 16.3125 -75.25 L 21.359375 -75.25 L 21.359375 -55.671875 L 37.796875 -55.671875 L 37.796875 -48.4375 L 21.359375 -48.4375 L 21.359375 -14.359375 C 21.359375 -11.960938 21.9375 -10.1875 23.09375 -9.03125 C 24.257812 -7.875 25.757812 -7.296875 27.59375 -7.296875 C 28.632812 -7.296875 29.535156 -7.429688 30.296875 -7.703125 C 31.066406 -7.984375 31.734375 -8.289062 32.296875 -8.625 C 32.859375 -8.96875 33.332031 -9.28125 33.71875 -9.5625 C 34.113281 -9.84375 34.460938 -9.984375 34.765625 -9.984375 C 35.285156 -9.984375 35.753906 -9.664062 36.171875 -9.03125 L 39.078125 -4.265625 C 37.359375 -2.648438 35.285156 -1.382812 32.859375 -0.46875 C 30.429688 0.4375 27.925781 0.890625 25.34375 0.890625 Z M 25.34375 0.890625 "/></g></g></g><g fill="#ffffff" fill-opacity="1"><g transform="translate(1131.874412, 768.671864)"><g><path d="M 38.6875 -25.5625 C 34.09375 -25.414062 30.175781 -25.050781 26.9375 -24.46875 C 23.707031 -23.894531 21.070312 -23.140625 19.03125 -22.203125 C 17 -21.265625 15.523438 -20.160156 14.609375 -18.890625 C 13.691406 -17.617188 13.234375 -16.203125 13.234375 -14.640625 C 13.234375 -13.140625 13.472656 -11.847656 13.953125 -10.765625 C 14.441406 -9.679688 15.109375 -8.789062 15.953125 -8.09375 C 16.796875 -7.40625 17.785156 -6.898438 18.921875 -6.578125 C 20.066406 -6.265625 21.289062 -6.109375 22.59375 -6.109375 C 24.351562 -6.109375 25.960938 -6.285156 27.421875 -6.640625 C 28.878906 -6.992188 30.25 -7.507812 31.53125 -8.1875 C 32.820312 -8.863281 34.054688 -9.664062 35.234375 -10.59375 C 36.410156 -11.53125 37.5625 -12.597656 38.6875 -13.796875 Z M 6.453125 -48.78125 C 9.585938 -51.8125 12.96875 -54.070312 16.59375 -55.5625 C 20.21875 -57.0625 24.238281 -57.8125 28.65625 -57.8125 C 31.832031 -57.8125 34.648438 -57.285156 37.109375 -56.234375 C 39.578125 -55.191406 41.648438 -53.734375 43.328125 -51.859375 C 45.015625 -49.992188 46.285156 -47.734375 47.140625 -45.078125 C 48.003906 -42.421875 48.4375 -39.503906 48.4375 -36.328125 L 48.4375 0 L 44.015625 0 C 43.046875 0 42.296875 -0.15625 41.765625 -0.46875 C 41.242188 -0.789062 40.832031 -1.421875 40.53125 -2.359375 L 39.421875 -7.734375 C 37.921875 -6.347656 36.457031 -5.125 35.03125 -4.0625 C 33.613281 -3 32.117188 -2.101562 30.546875 -1.375 C 28.984375 -0.644531 27.3125 -0.0859375 25.53125 0.296875 C 23.757812 0.691406 21.789062 0.890625 19.625 0.890625 C 17.414062 0.890625 15.335938 0.582031 13.390625 -0.03125 C 11.453125 -0.644531 9.765625 -1.566406 8.328125 -2.796875 C 6.890625 -4.035156 5.75 -5.597656 4.90625 -7.484375 C 4.0625 -9.367188 3.640625 -11.601562 3.640625 -14.1875 C 3.640625 -16.425781 4.253906 -18.582031 5.484375 -20.65625 C 6.722656 -22.738281 8.722656 -24.582031 11.484375 -26.1875 C 14.253906 -27.789062 17.863281 -29.109375 22.3125 -30.140625 C 26.757812 -31.171875 32.21875 -31.757812 38.6875 -31.90625 L 38.6875 -36.328125 C 38.6875 -40.742188 37.734375 -44.082031 35.828125 -46.34375 C 33.921875 -48.601562 31.132812 -49.734375 27.46875 -49.734375 C 25.007812 -49.734375 22.945312 -49.425781 21.28125 -48.8125 C 19.613281 -48.195312 18.171875 -47.503906 16.953125 -46.734375 C 15.742188 -45.960938 14.695312 -45.269531 13.8125 -44.65625 C 12.9375 -44.039062 12.070312 -43.734375 11.21875 -43.734375 C 10.539062 -43.734375 9.957031 -43.910156 9.46875 -44.265625 C 8.988281 -44.617188 8.582031 -45.054688 8.25 -45.578125 Z M 6.453125 -48.78125 "/></g></g></g><g fill="#ffffff" fill-opacity="1"><g transform="translate(26.730205, 891.023499)"><g><path d="M 75.578125 -80.34375 L 42.84375 0 L 33.078125 0 L 0.34375 -80.34375 L 9.03125 -80.34375 C 10 -80.34375 10.78125 -80.097656 11.375 -79.609375 C 11.976562 -79.128906 12.429688 -78.515625 12.734375 -77.765625 L 35.375 -21.078125 C 35.863281 -19.804688 36.34375 -18.421875 36.8125 -16.921875 C 37.28125 -15.429688 37.703125 -13.863281 38.078125 -12.21875 C 38.441406 -13.863281 38.828125 -15.429688 39.234375 -16.921875 C 39.648438 -18.421875 40.101562 -19.804688 40.59375 -21.078125 L 63.1875 -77.765625 C 63.414062 -78.398438 63.851562 -78.988281 64.5 -79.53125 C 65.15625 -80.070312 65.953125 -80.34375 66.890625 -80.34375 Z M 75.578125 -80.34375 "/></g></g></g><g fill="#ffffff" fill-opacity="1"><g transform="translate(100.40294, 891.023499)"><g><path d="M 45.921875 -34.59375 C 45.921875 -36.914062 45.59375 -39.035156 44.9375 -40.953125 C 44.28125 -42.878906 43.328125 -44.539062 42.078125 -45.9375 C 40.828125 -47.34375 39.300781 -48.425781 37.5 -49.1875 C 35.707031 -49.957031 33.675781 -50.34375 31.40625 -50.34375 C 26.613281 -50.34375 22.828125 -48.953125 20.046875 -46.171875 C 17.265625 -43.390625 15.535156 -39.53125 14.859375 -34.59375 Z M 54 -7.96875 C 52.757812 -6.46875 51.28125 -5.164062 49.5625 -4.0625 C 47.84375 -2.957031 46 -2.050781 44.03125 -1.34375 C 42.070312 -0.632812 40.046875 -0.101562 37.953125 0.25 C 35.859375 0.601562 33.785156 0.78125 31.734375 0.78125 C 27.804688 0.78125 24.1875 0.117188 20.875 -1.203125 C 17.570312 -2.535156 14.710938 -4.476562 12.296875 -7.03125 C 9.890625 -9.59375 8.015625 -12.757812 6.671875 -16.53125 C 5.328125 -20.3125 4.65625 -24.648438 4.65625 -29.546875 C 4.65625 -33.515625 5.257812 -37.21875 6.46875 -40.65625 C 7.6875 -44.09375 9.4375 -47.070312 11.71875 -49.59375 C 14 -52.113281 16.78125 -54.09375 20.0625 -55.53125 C 23.351562 -56.976562 27.054688 -57.703125 31.171875 -57.703125 C 34.578125 -57.703125 37.726562 -57.128906 40.625 -55.984375 C 43.519531 -54.847656 46.019531 -53.203125 48.125 -51.046875 C 50.238281 -48.898438 51.894531 -46.25 53.09375 -43.09375 C 54.289062 -39.9375 54.890625 -36.335938 54.890625 -32.296875 C 54.890625 -30.722656 54.722656 -29.675781 54.390625 -29.15625 C 54.054688 -28.632812 53.421875 -28.375 52.484375 -28.375 L 14.515625 -28.375 C 14.628906 -24.78125 15.125 -21.65625 16 -19 C 16.882812 -16.351562 18.109375 -14.140625 19.671875 -12.359375 C 21.242188 -10.585938 23.113281 -9.257812 25.28125 -8.375 C 27.457031 -7.5 29.890625 -7.0625 32.578125 -7.0625 C 35.078125 -7.0625 37.234375 -7.347656 39.046875 -7.921875 C 40.859375 -8.503906 42.421875 -9.132812 43.734375 -9.8125 C 45.046875 -10.488281 46.140625 -11.113281 47.015625 -11.6875 C 47.890625 -12.269531 48.644531 -12.5625 49.28125 -12.5625 C 50.101562 -12.5625 50.738281 -12.242188 51.1875 -11.609375 Z M 54 -7.96875 "/></g></g></g><g fill="#ffffff" fill-opacity="1"><g transform="translate(157.367485, 891.023499)"><g><path d="M 17.375 -45.421875 C 19.175781 -49.304688 21.382812 -52.34375 24 -54.53125 C 26.613281 -56.71875 29.8125 -57.8125 33.59375 -57.8125 C 34.78125 -57.8125 35.925781 -57.679688 37.03125 -57.421875 C 38.132812 -57.160156 39.117188 -56.75 39.984375 -56.1875 L 39.25 -48.71875 C 39.019531 -47.789062 38.457031 -47.328125 37.5625 -47.328125 C 37.039062 -47.328125 36.273438 -47.4375 35.265625 -47.65625 C 34.253906 -47.882812 33.113281 -48 31.84375 -48 C 30.050781 -48 28.453125 -47.734375 27.046875 -47.203125 C 25.648438 -46.679688 24.398438 -45.90625 23.296875 -44.875 C 22.191406 -43.851562 21.203125 -42.582031 20.328125 -41.0625 C 19.453125 -39.550781 18.65625 -37.828125 17.9375 -35.890625 L 17.9375 0 L 7.90625 0 L 7.90625 -56.796875 L 13.625 -56.796875 C 14.707031 -56.796875 15.453125 -56.585938 15.859375 -56.171875 C 16.273438 -55.765625 16.554688 -55.054688 16.703125 -54.046875 Z M 17.375 -45.421875 "/></g></g></g><g fill="#ffffff" fill-opacity="1"><g transform="translate(195.941759, 891.023499)"><g><path d="M 40.984375 -47.4375 C 40.535156 -46.613281 39.84375 -46.203125 38.90625 -46.203125 C 38.351562 -46.203125 37.71875 -46.40625 37 -46.8125 C 36.289062 -47.226562 35.421875 -47.6875 34.390625 -48.1875 C 33.367188 -48.695312 32.144531 -49.164062 30.71875 -49.59375 C 29.300781 -50.019531 27.625 -50.234375 25.6875 -50.234375 C 24 -50.234375 22.484375 -50.019531 21.140625 -49.59375 C 19.796875 -49.164062 18.644531 -48.578125 17.6875 -47.828125 C 16.738281 -47.078125 16.007812 -46.207031 15.5 -45.21875 C 15 -44.226562 14.75 -43.15625 14.75 -42 C 14.75 -40.539062 15.164062 -39.320312 16 -38.34375 C 16.84375 -37.375 17.957031 -36.535156 19.34375 -35.828125 C 20.726562 -35.117188 22.296875 -34.492188 24.046875 -33.953125 C 25.804688 -33.410156 27.609375 -32.828125 29.453125 -32.203125 C 31.304688 -31.585938 33.113281 -30.90625 34.875 -30.15625 C 36.632812 -29.414062 38.203125 -28.484375 39.578125 -27.359375 C 40.960938 -26.242188 42.078125 -24.867188 42.921875 -23.234375 C 43.765625 -21.609375 44.1875 -19.65625 44.1875 -17.375 C 44.1875 -14.757812 43.71875 -12.335938 42.78125 -10.109375 C 41.84375 -7.890625 40.457031 -5.96875 38.625 -4.34375 C 36.800781 -2.71875 34.5625 -1.4375 31.90625 -0.5 C 29.25 0.425781 26.179688 0.890625 22.703125 0.890625 C 18.742188 0.890625 15.15625 0.25 11.9375 -1.03125 C 8.726562 -2.320312 6 -3.976562 3.75 -6 L 6.109375 -9.8125 C 6.410156 -10.300781 6.765625 -10.675781 7.171875 -10.9375 C 7.585938 -11.195312 8.113281 -11.328125 8.75 -11.328125 C 9.414062 -11.328125 10.125 -11.0625 10.875 -10.53125 C 11.625 -10.007812 12.53125 -9.429688 13.59375 -8.796875 C 14.65625 -8.160156 15.953125 -7.582031 17.484375 -7.0625 C 19.023438 -6.539062 20.9375 -6.28125 23.21875 -6.28125 C 25.15625 -6.28125 26.851562 -6.53125 28.3125 -7.03125 C 29.769531 -7.539062 30.984375 -8.222656 31.953125 -9.078125 C 32.929688 -9.941406 33.648438 -10.929688 34.109375 -12.046875 C 34.578125 -13.171875 34.8125 -14.367188 34.8125 -15.640625 C 34.8125 -17.210938 34.390625 -18.507812 33.546875 -19.53125 C 32.710938 -20.5625 31.601562 -21.441406 30.21875 -22.171875 C 28.832031 -22.898438 27.253906 -23.535156 25.484375 -24.078125 C 23.710938 -24.617188 21.898438 -25.1875 20.046875 -25.78125 C 18.191406 -26.382812 16.375 -27.066406 14.59375 -27.828125 C 12.820312 -28.597656 11.242188 -29.5625 9.859375 -30.71875 C 8.484375 -31.882812 7.375 -33.316406 6.53125 -35.015625 C 5.6875 -36.710938 5.265625 -38.78125 5.265625 -41.21875 C 5.265625 -43.382812 5.710938 -45.46875 6.609375 -47.46875 C 7.515625 -49.46875 8.828125 -51.222656 10.546875 -52.734375 C 12.265625 -54.242188 14.375 -55.445312 16.875 -56.34375 C 19.382812 -57.25 22.242188 -57.703125 25.453125 -57.703125 C 29.191406 -57.703125 32.546875 -57.109375 35.515625 -55.921875 C 38.492188 -54.742188 41.066406 -53.128906 43.234375 -51.078125 Z M 40.984375 -47.4375 "/></g></g></g><g fill="#ffffff" fill-opacity="1"><g transform="translate(242.253411, 891.023499)"><g><path d="M 18.453125 -56.796875 L 18.453125 0 L 8.46875 0 L 8.46875 -56.796875 Z M 20.578125 -74.625 C 20.578125 -73.65625 20.378906 -72.75 19.984375 -71.90625 C 19.597656 -71.070312 19.078125 -70.328125 18.421875 -69.671875 C 17.765625 -69.015625 16.992188 -68.5 16.109375 -68.125 C 15.234375 -67.75 14.3125 -67.5625 13.34375 -67.5625 C 12.375 -67.5625 11.46875 -67.75 10.625 -68.125 C 9.78125 -68.5 9.039062 -69.015625 8.40625 -69.671875 C 7.769531 -70.328125 7.265625 -71.070312 6.890625 -71.90625 C 6.523438 -72.75 6.34375 -73.65625 6.34375 -74.625 C 6.34375 -75.601562 6.523438 -76.53125 6.890625 -77.40625 C 7.265625 -78.28125 7.769531 -79.046875 8.40625 -79.703125 C 9.039062 -80.359375 9.78125 -80.875 10.625 -81.25 C 11.46875 -81.625 12.375 -81.8125 13.34375 -81.8125 C 14.3125 -81.8125 15.234375 -81.625 16.109375 -81.25 C 16.992188 -80.875 17.765625 -80.359375 18.421875 -79.703125 C 19.078125 -79.046875 19.597656 -78.28125 19.984375 -77.40625 C 20.378906 -76.53125 20.578125 -75.601562 20.578125 -74.625 Z M 20.578125 -74.625 "/></g></g></g><g fill="#ffffff" fill-opacity="1"><g transform="translate(266.922879, 891.023499)"><g><path d="M 31.84375 -57.703125 C 36 -57.703125 39.738281 -57.007812 43.0625 -55.625 C 46.382812 -54.238281 49.222656 -52.273438 51.578125 -49.734375 C 53.929688 -47.191406 55.734375 -44.113281 56.984375 -40.5 C 58.242188 -36.894531 58.875 -32.867188 58.875 -28.421875 C 58.875 -23.941406 58.242188 -19.90625 56.984375 -16.3125 C 55.734375 -12.726562 53.929688 -9.664062 51.578125 -7.125 C 49.222656 -4.582031 46.382812 -2.628906 43.0625 -1.265625 C 39.738281 0.0976562 36 0.78125 31.84375 0.78125 C 27.65625 0.78125 23.890625 0.0976562 20.546875 -1.265625 C 17.203125 -2.628906 14.351562 -4.582031 12 -7.125 C 9.644531 -9.664062 7.835938 -12.726562 6.578125 -16.3125 C 5.328125 -19.90625 4.703125 -23.941406 4.703125 -28.421875 C 4.703125 -32.867188 5.328125 -36.894531 6.578125 -40.5 C 7.835938 -44.113281 9.644531 -47.191406 12 -49.734375 C 14.351562 -52.273438 17.203125 -54.238281 20.546875 -55.625 C 23.890625 -57.007812 27.65625 -57.703125 31.84375 -57.703125 Z M 31.84375 -7.015625 C 37.457031 -7.015625 41.644531 -8.890625 44.40625 -12.640625 C 47.175781 -16.398438 48.5625 -21.644531 48.5625 -28.375 C 48.5625 -35.132812 47.175781 -40.398438 44.40625 -44.171875 C 41.644531 -47.953125 37.457031 -49.84375 31.84375 -49.84375 C 29.007812 -49.84375 26.535156 -49.359375 24.421875 -48.390625 C 22.304688 -47.421875 20.546875 -46.019531 19.140625 -44.1875 C 17.742188 -42.351562 16.695312 -40.097656 16 -37.421875 C 15.3125 -34.753906 14.96875 -31.738281 14.96875 -28.375 C 14.96875 -21.644531 16.359375 -16.398438 19.140625 -12.640625 C 21.929688 -8.890625 26.164062 -7.015625 31.84375 -7.015625 Z M 31.84375 -7.015625 "/></g></g></g><g fill="#ffffff" fill-opacity="1"><g transform="translate(328.260697, 891.023499)"><g><path d="M 17.328125 -48.5625 C 18.554688 -49.9375 19.863281 -51.1875 21.25 -52.3125 C 22.632812 -53.4375 24.101562 -54.398438 25.65625 -55.203125 C 27.207031 -56.003906 28.847656 -56.617188 30.578125 -57.046875 C 32.316406 -57.484375 34.195312 -57.703125 36.21875 -57.703125 C 39.320312 -57.703125 42.0625 -57.1875 44.4375 -56.15625 C 46.8125 -55.125 48.789062 -53.664062 50.375 -51.78125 C 51.96875 -49.894531 53.175781 -47.625 54 -44.96875 C 54.820312 -42.3125 55.234375 -39.378906 55.234375 -36.171875 L 55.234375 0 L 45.1875 0 L 45.1875 -36.171875 C 45.1875 -40.460938 44.207031 -43.796875 42.25 -46.171875 C 40.289062 -48.546875 37.3125 -49.734375 33.3125 -49.734375 C 30.351562 -49.734375 27.59375 -49.019531 25.03125 -47.59375 C 22.46875 -46.175781 20.101562 -44.253906 17.9375 -41.828125 L 17.9375 0 L 7.90625 0 L 7.90625 -56.796875 L 13.90625 -56.796875 C 15.320312 -56.796875 16.203125 -56.101562 16.546875 -54.71875 Z M 17.328125 -48.5625 "/></g></g></g><g fill="#ffffff" fill-opacity="1"><g transform="translate(388.589304, 891.023499)"><g/></g></g><g fill="#ffffff" fill-opacity="1"><g transform="translate(415.052914, 891.023499)"><g><path d="M 64.59375 -71.203125 L 38.578125 -71.203125 L 38.578125 0 L 27.75 0 L 27.75 -71.203125 L 1.6875 -71.203125 L 1.6875 -80.34375 L 64.59375 -80.34375 Z M 64.59375 -71.203125 "/></g></g></g><g fill="#ffffff" fill-opacity="1"><g transform="translate(479.025929, 891.023499)"><g><path d="M 31.84375 -57.703125 C 36 -57.703125 39.738281 -57.007812 43.0625 -55.625 C 46.382812 -54.238281 49.222656 -52.273438 51.578125 -49.734375 C 53.929688 -47.191406 55.734375 -44.113281 56.984375 -40.5 C 58.242188 -36.894531 58.875 -32.867188 58.875 -28.421875 C 58.875 -23.941406 58.242188 -19.90625 56.984375 -16.3125 C 55.734375 -12.726562 53.929688 -9.664062 51.578125 -7.125 C 49.222656 -4.582031 46.382812 -2.628906 43.0625 -1.265625 C 39.738281 0.0976562 36 0.78125 31.84375 0.78125 C 27.65625 0.78125 23.890625 0.0976562 20.546875 -1.265625 C 17.203125 -2.628906 14.351562 -4.582031 12 -7.125 C 9.644531 -9.664062 7.835938 -12.726562 6.578125 -16.3125 C 5.328125 -19.90625 4.703125 -23.941406 4.703125 -28.421875 C 4.703125 -32.867188 5.328125 -36.894531 6.578125 -40.5 C 7.835938 -44.113281 9.644531 -47.191406 12 -49.734375 C 14.351562 -52.273438 17.203125 -54.238281 20.546875 -55.625 C 23.890625 -57.007812 27.65625 -57.703125 31.84375 -57.703125 Z M 31.84375 -7.015625 C 37.457031 -7.015625 41.644531 -8.890625 44.40625 -12.640625 C 47.175781 -16.398438 48.5625 -21.644531 48.5625 -28.375 C 48.5625 -35.132812 47.175781 -40.398438 44.40625 -44.171875 C 41.644531 -47.953125 37.457031 -49.84375 31.84375 -49.84375 C 29.007812 -49.84375 26.535156 -49.359375 24.421875 -48.390625 C 22.304688 -47.421875 20.546875 -46.019531 19.140625 -44.1875 C 17.742188 -42.351562 16.695312 -40.097656 16 -37.421875 C 15.3125 -34.753906 14.96875 -31.738281 14.96875 -28.375 C 14.96875 -21.644531 16.359375 -16.398438 19.140625 -12.640625 C 21.929688 -8.890625 26.164062 -7.015625 31.84375 -7.015625 Z M 31.84375 -7.015625 "/></g></g></g><g fill="#ffffff" fill-opacity="1"><g transform="translate(540.363761, 891.023499)"><g><path d="M 44.90625 -43.28125 C 43.039062 -45.789062 41.023438 -47.539062 38.859375 -48.53125 C 36.691406 -49.519531 34.257812 -50.015625 31.5625 -50.015625 C 26.289062 -50.015625 22.234375 -48.125 19.390625 -44.34375 C 16.554688 -40.570312 15.140625 -35.191406 15.140625 -28.203125 C 15.140625 -24.503906 15.457031 -21.335938 16.09375 -18.703125 C 16.726562 -16.066406 17.660156 -13.894531 18.890625 -12.1875 C 20.128906 -10.488281 21.644531 -9.25 23.4375 -8.46875 C 25.226562 -7.6875 27.265625 -7.296875 29.546875 -7.296875 C 32.835938 -7.296875 35.707031 -8.039062 38.15625 -9.53125 C 40.601562 -11.03125 42.851562 -13.144531 44.90625 -15.875 Z M 54.890625 -82.59375 L 54.890625 0 L 48.953125 0 C 47.523438 0 46.628906 -0.691406 46.265625 -2.078125 L 45.359375 -8.96875 C 42.929688 -6.050781 40.164062 -3.695312 37.0625 -1.90625 C 33.957031 -0.113281 30.367188 0.78125 26.296875 0.78125 C 23.046875 0.78125 20.09375 0.15625 17.4375 -1.09375 C 14.78125 -2.34375 12.515625 -4.179688 10.640625 -6.609375 C 8.773438 -9.046875 7.335938 -12.078125 6.328125 -15.703125 C 5.328125 -19.328125 4.828125 -23.492188 4.828125 -28.203125 C 4.828125 -32.390625 5.382812 -36.285156 6.5 -39.890625 C 7.625 -43.503906 9.234375 -46.632812 11.328125 -49.28125 C 13.421875 -51.9375 15.988281 -54.019531 19.03125 -55.53125 C 22.082031 -57.050781 25.515625 -57.8125 29.328125 -57.8125 C 32.804688 -57.8125 35.785156 -57.222656 38.265625 -56.046875 C 40.753906 -54.867188 42.96875 -53.234375 44.90625 -51.140625 L 44.90625 -82.59375 Z M 54.890625 -82.59375 "/></g></g></g><g fill="#ffffff" fill-opacity="1"><g transform="translate(600.916663, 891.023499)"><g><path d="M 38.6875 -25.5625 C 34.09375 -25.414062 30.175781 -25.050781 26.9375 -24.46875 C 23.707031 -23.894531 21.070312 -23.140625 19.03125 -22.203125 C 17 -21.265625 15.523438 -20.160156 14.609375 -18.890625 C 13.691406 -17.617188 13.234375 -16.203125 13.234375 -14.640625 C 13.234375 -13.140625 13.472656 -11.847656 13.953125 -10.765625 C 14.441406 -9.679688 15.109375 -8.789062 15.953125 -8.09375 C 16.796875 -7.40625 17.785156 -6.898438 18.921875 -6.578125 C 20.066406 -6.265625 21.289062 -6.109375 22.59375 -6.109375 C 24.351562 -6.109375 25.960938 -6.285156 27.421875 -6.640625 C 28.878906 -6.992188 30.25 -7.507812 31.53125 -8.1875 C 32.820312 -8.863281 34.054688 -9.664062 35.234375 -10.59375 C 36.410156 -11.53125 37.5625 -12.597656 38.6875 -13.796875 Z M 6.453125 -48.78125 C 9.585938 -51.8125 12.96875 -54.070312 16.59375 -55.5625 C 20.21875 -57.0625 24.238281 -57.8125 28.65625 -57.8125 C 31.832031 -57.8125 34.648438 -57.285156 37.109375 -56.234375 C 39.578125 -55.191406 41.648438 -53.734375 43.328125 -51.859375 C 45.015625 -49.992188 46.285156 -47.734375 47.140625 -45.078125 C 48.003906 -42.421875 48.4375 -39.503906 48.4375 -36.328125 L 48.4375 0 L 44.015625 0 C 43.046875 0 42.296875 -0.15625 41.765625 -0.46875 C 41.242188 -0.789062 40.832031 -1.421875 40.53125 -2.359375 L 39.421875 -7.734375 C 37.921875 -6.347656 36.457031 -5.125 35.03125 -4.0625 C 33.613281 -3 32.117188 -2.101562 30.546875 -1.375 C 28.984375 -0.644531 27.3125 -0.0859375 25.53125 0.296875 C 23.757812 0.691406 21.789062 0.890625 19.625 0.890625 C 17.414062 0.890625 15.335938 0.582031 13.390625 -0.03125 C 11.453125 -0.644531 9.765625 -1.566406 8.328125 -2.796875 C 6.890625 -4.035156 5.75 -5.597656 4.90625 -7.484375 C 4.0625 -9.367188 3.640625 -11.601562 3.640625 -14.1875 C 3.640625 -16.425781 4.253906 -18.582031 5.484375 -20.65625 C 6.722656 -22.738281 8.722656 -24.582031 11.484375 -26.1875 C 14.253906 -27.789062 17.863281 -29.109375 22.3125 -30.140625 C 26.757812 -31.171875 32.21875 -31.757812 38.6875 -31.90625 L 38.6875 -36.328125 C 38.6875 -40.742188 37.734375 -44.082031 35.828125 -46.34375 C 33.921875 -48.601562 31.132812 -49.734375 27.46875 -49.734375 C 25.007812 -49.734375 22.945312 -49.425781 21.28125 -48.8125 C 19.613281 -48.195312 18.171875 -47.503906 16.953125 -46.734375 C 15.742188 -45.960938 14.695312 -45.269531 13.8125 -44.65625 C 12.9375 -44.039062 12.070312 -43.734375 11.21875 -43.734375 C 10.539062 -43.734375 9.957031 -43.910156 9.46875 -44.265625 C 8.988281 -44.617188 8.582031 -45.054688 8.25 -45.578125 Z M 6.453125 -48.78125 "/></g></g></g><g fill="#ffffff" fill-opacity="1"><g transform="translate(654.405015, 891.023499)"><g><path d="M 56.90625 -56.796875 L 25.234375 16.765625 C 24.898438 17.515625 24.476562 18.113281 23.96875 18.5625 C 23.46875 19.007812 22.691406 19.234375 21.640625 19.234375 L 14.234375 19.234375 L 24.609375 -3.3125 L 1.171875 -56.796875 L 9.8125 -56.796875 C 10.675781 -56.796875 11.359375 -56.582031 11.859375 -56.15625 C 12.359375 -55.726562 12.703125 -55.25 12.890625 -54.71875 L 28.09375 -18.953125 C 28.6875 -17.378906 29.191406 -15.734375 29.609375 -14.015625 C 30.128906 -15.773438 30.6875 -17.441406 31.28125 -19.015625 L 46.03125 -54.71875 C 46.257812 -55.320312 46.644531 -55.816406 47.1875 -56.203125 C 47.726562 -56.597656 48.332031 -56.796875 49 -56.796875 Z M 56.90625 -56.796875 "/></g></g></g></svg>