<svg xmlns="http://www.w3.org/2000/svg" xmlns:xlink="http://www.w3.org/1999/xlink" width="500" zoomAndPan="magnify" viewBox="0 0 375 374.999991" height="500" preserveAspectRatio="xMidYMid meet" version="1.0"><defs><clipPath id="d6ae6d8ed8"><path d="M 37.476562 48.566406 L 337.476562 48.566406 L 337.476562 308 L 37.476562 308 Z M 37.476562 48.566406 " clip-rule="nonzero"/></clipPath><clipPath id="e844d3664b"><path d="M 187.488281 48.566406 L 337.496094 307.984375 L 37.476562 307.984375 Z M 187.488281 48.566406 " clip-rule="nonzero"/></clipPath><clipPath id="994219b3f2"><path d="M 74.84375 85.246094 L 299.84375 85.246094 L 299.84375 279.492188 L 74.84375 279.492188 Z M 74.84375 85.246094 " clip-rule="nonzero"/></clipPath><clipPath id="a84a7405e0"><path d="M 187.484375 85.246094 L 300.125 279.832031 L 74.84375 279.832031 Z M 187.484375 85.246094 " clip-rule="nonzero"/></clipPath><clipPath id="f138166a03"><path d="M 112.566406 117.148438 L 262.566406 117.148438 L 262.566406 247.648438 L 112.566406 247.648438 Z M 112.566406 117.148438 " clip-rule="nonzero"/></clipPath><clipPath id="cb25d75ae5"><path d="M 187.484375 117.148438 L 262.402344 247.925781 L 112.566406 247.925781 Z M 187.484375 117.148438 " clip-rule="nonzero"/></clipPath></defs><rect x="-37.5" width="450" fill="#ffffff" y="-37.499999" height="449.999989" fill-opacity="1"/><rect x="-37.5" width="450" fill="#ffffff" y="-37.499999" height="449.999989" fill-opacity="1"/><g clip-path="url(#d6ae6d8ed8)"><g clip-path="url(#e844d3664b)"><path stroke-linecap="butt" transform="matrix(0.75, 0, 0, 0.75, 37.477667, 48.564683)" fill="none" stroke-linejoin="miter" d="M 200.014166 0.00229739 L 400.024595 345.892945 L -0.00147256 345.892945 Z M 200.014166 0.00229739 " stroke="#000000" stroke-width="10" stroke-opacity="1" stroke-miterlimit="4"/></g></g><g clip-path="url(#994219b3f2)"><g clip-path="url(#a84a7405e0)"><path stroke-linecap="butt" transform="matrix(0.75, 0, 0, 0.75, 74.844991, 85.244937)" fill="none" stroke-linejoin="miter" d="M 150.185855 0.0015426 L 300.373365 259.449476 L -0.00165438 259.449476 Z M 150.185855 0.0015426 " stroke="#000000" stroke-width="10" stroke-opacity="1" stroke-miterlimit="4"/></g></g><g clip-path="url(#f138166a03)"><g clip-path="url(#cb25d75ae5)"><path stroke-linecap="butt" transform="matrix(0.75, 0, 0, 0.75, 112.566019, 117.149172)" fill="none" stroke-linejoin="miter" d="M 99.891148 -0.000978676 L 199.78178 174.368824 L 0.000516722 174.368824 Z M 99.891148 -0.000978676 " stroke="#000000" stroke-width="10" stroke-opacity="1" stroke-miterlimit="4"/></g></g></svg>