<?xml version="1.0" standalone="no"?>
<!DOCTYPE svg PUBLIC "-//W3C//DTD SVG 20010904//EN"
 "http://www.w3.org/TR/2001/REC-SVG-20010904/DTD/svg10.dtd">
<svg version="1.0" xmlns="http://www.w3.org/2000/svg"
 width="300.000000pt" height="55.000000pt" viewBox="0 0 300.000000 55.000000"
 preserveAspectRatio="xMidYMid meet">
<metadata>
Created by potrace 1.10, written by Peter Selinger 2001-2011
</metadata>
<g transform="translate(0.000000,55.000000) scale(0.100000,-0.100000)"
fill="#000000" stroke="none">
<path d="M73 427 c-3 -5 4 -11 15 -14 23 -6 38 -34 107 -211 37 -94 53 -122
67 -122 10 0 18 6 18 13 -1 15 63 177 70 177 3 0 21 -43 40 -95 25 -68 40 -95
52 -95 9 0 20 10 23 23 4 12 30 82 58 155 35 93 58 139 74 149 12 8 21 18 19
22 -7 11 -110 4 -114 -8 -2 -6 3 -11 12 -11 9 0 16 -8 16 -17 0 -29 -72 -225
-80 -216 -19 22 -82 215 -77 235 6 22 4 23 -46 21 -29 -1 -54 -2 -55 -2 -2 -1
7 -14 21 -31 41 -48 43 -82 10 -161 -15 -38 -30 -69 -33 -69 -3 0 -24 51 -48
112 l-43 112 23 18 c13 10 21 18 18 19 -28 5 -143 2 -147 -4z"/>
<path d="M770 263 c-52 -92 -96 -172 -98 -178 -2 -7 63 -10 198 -10 137 0 200
3 198 11 -5 17 -193 344 -198 344 -3 -1 -48 -76 -100 -167z m188 -16 c45 -79
82 -146 82 -148 0 -2 -76 -4 -170 -4 -93 0 -169 3 -167 7 7 19 163 288 167
288 3 0 42 -65 88 -143z"/>
<path d="M804 232 l-62 -107 64 -3 c35 -2 93 -2 129 0 l64 3 -62 107 c-34 59
-64 108 -67 108 -3 0 -33 -49 -66 -108z m119 -12 l46 -80 -99 0 -99 0 47 80
c26 44 50 80 53 80 4 0 27 -36 52 -80z"/>
<path d="M842 211 c-12 -21 -22 -41 -22 -45 0 -3 23 -6 50 -6 28 0 50 2 50 5
0 13 -41 85 -48 85 -5 0 -18 -17 -30 -39z m42 -7 c9 -23 8 -24 -14 -24 -11 0
-20 2 -20 4 0 12 13 36 20 36 4 0 11 -7 14 -16z"/>
<path d="M1130 420 c0 -5 8 -14 18 -19 11 -6 42 -45 70 -89 47 -71 52 -83 52
-135 0 -52 -2 -58 -25 -67 -44 -17 -27 -25 55 -26 81 0 101 9 55 26 -23 9 -25
15 -25 69 0 55 4 67 45 130 25 38 56 78 70 89 14 11 25 23 25 26 0 3 -27 6
-60 6 -33 0 -60 -3 -60 -6 0 -3 9 -13 20 -22 20 -17 20 -17 -15 -74 -20 -32
-38 -58 -39 -58 -2 0 -20 25 -40 56 -35 52 -41 84 -16 84 5 0 10 5 10 10 0 6
-30 10 -70 10 -38 0 -70 -4 -70 -10z"/>
<path d="M1578 410 c-66 -35 -101 -113 -87 -193 8 -52 36 -88 89 -114 52 -27
108 -29 166 -7 41 16 42 17 36 56 -4 35 -1 43 19 59 20 15 21 19 8 24 -28 11
-132 1 -137 -12 -2 -8 5 -13 15 -13 26 0 43 -19 43 -50 0 -81 -124 -59 -171
30 -12 21 -19 55 -19 88 0 46 4 58 29 83 25 25 37 29 83 29 32 0 62 -6 74 -15
27 -20 42 -18 50 7 10 33 -19 48 -95 48 -45 -1 -78 -7 -103 -20z"/>
<path d="M1834 418 c-3 -5 -1 -8 5 -8 5 0 17 -7 25 -16 13 -12 16 -41 16 -145
l0 -129 -26 -11 c-41 -15 -20 -23 62 -25 75 -1 94 9 49 26 -14 5 -25 13 -25
17 -1 5 -2 32 -4 61 -3 49 -2 52 21 52 25 0 47 -19 121 -108 l43 -52 89 3 c92
3 117 10 81 22 -23 7 -27 26 -11 56 9 16 22 19 81 19 65 0 70 -1 79 -26 14
-36 13 -42 -11 -49 -42 -14 -4 -19 149 -20 187 -2 233 6 277 51 94 94 52 255
-74 283 -53 11 -221 11 -221 -1 0 -4 4 -8 9 -8 5 0 17 -7 25 -16 13 -12 16
-40 16 -139 0 -121 -1 -125 -25 -141 -50 -33 -66 -8 -175 259 -28 68 -51 75
-68 20 -21 -70 -112 -268 -129 -280 -28 -22 -40 -15 -93 49 -29 35 -61 68 -73
75 -21 12 -21 12 5 22 81 31 75 138 -10 160 -42 11 -201 10 -208 -1z m193 -40
c27 -25 31 -79 8 -98 -8 -7 -35 -15 -59 -17 l-45 -5 4 61 c2 34 7 66 10 71 11
18 58 11 82 -12z m765 -4 c30 -27 58 -93 58 -139 0 -75 -49 -125 -123 -125
-57 0 -59 6 -59 144 1 69 4 131 8 137 10 17 91 4 116 -17z m-403 -96 c13 -31
21 -60 19 -64 -1 -4 -27 -8 -56 -8 -42 -1 -51 2 -47 14 37 97 51 128 56 122 3
-4 16 -33 28 -64z"/>
</g>
</svg>
