<svg version="1.1" id="Layer_1" xmlns="http://www.w3.org/2000/svg" xmlns:xlink="http://www.w3.org/1999/xlink" x="0px" y="0px"
	 width="100%" viewBox="0 0 1751 319" enable-background="new 0 0 1751 319" xml:space="preserve">
<path fill="#FEFEFE" opacity="1.000000" stroke="none" 
	d="
M1268.000000,320.000000 
	C845.384216,320.000000 423.268463,320.000000 1.076357,320.000000 
	C1.076357,213.730438 1.076357,107.460808 1.076357,1.095590 
	C584.666687,1.095590 1168.333374,1.095590 1751.970459,1.095590 
	C1751.970459,107.398422 1751.970459,213.699219 1751.970459,320.000000 
	C1590.793823,320.000000 1429.646973,320.000000 1268.000000,320.000000 
M1202.520508,183.936661 
	C1196.189697,180.775650 1189.858765,177.614655 1184.030396,174.704498 
	C1184.803101,174.581940 1186.702026,174.244965 1188.611206,173.983490 
	C1210.844971,170.938507 1228.995605,154.076294 1231.955078,133.702408 
	C1235.566040,108.843102 1225.114258,89.246170 1202.555420,79.488922 
	C1186.118042,72.379318 1168.656128,71.623932 1151.075317,72.450348 
	C1126.448608,73.607979 1101.821167,75.233589 1077.209106,72.419998 
	C1073.459961,71.991409 1073.134277,74.391945 1072.498169,76.802368 
	C1071.698120,79.833580 1072.512451,81.927917 1075.838379,82.815331 
	C1092.977295,87.388351 1096.967896,97.030815 1096.949585,112.681892 
	C1096.922363,136.011093 1096.944580,159.340363 1096.943359,182.669601 
	C1096.942505,200.333160 1097.024292,217.997269 1096.908203,235.660080 
	C1096.812500,250.216888 1091.286865,256.948578 1077.191772,260.186981 
	C1076.543091,260.335999 1075.647217,260.316528 1075.307373,260.734283 
	C1074.243652,262.041718 1072.651978,263.494293 1072.599609,264.938965 
	C1072.458984,268.819641 1074.273071,270.655701 1078.726074,270.617371 
	C1104.219604,270.398041 1129.716187,270.511353 1155.211670,270.510529 
	C1162.954468,270.510284 1164.018311,269.203735 1162.595459,261.144012 
	C1160.247925,260.758514 1157.805786,260.393250 1155.377319,259.953033 
	C1136.755249,256.577423 1130.237061,249.924072 1130.788452,231.880112 
	C1131.205566,218.228607 1130.869995,204.554108 1130.869629,190.889832 
	C1130.869507,187.615860 1130.869629,184.341873 1130.869629,181.058563 
	C1151.031738,180.195831 1167.552124,185.407211 1179.718506,202.266068 
	C1192.279297,219.671570 1206.018555,236.224442 1219.165527,253.209778 
	C1233.769897,272.077972 1252.763672,278.800507 1275.683838,272.705627 
	C1281.929932,271.044678 1287.955688,270.532532 1294.206543,270.520538 
	C1309.703857,270.490753 1325.201416,270.463989 1340.698242,270.548309 
	C1343.886963,270.565643 1345.798828,269.576569 1346.047607,266.164917 
	C1346.272827,263.075714 1345.473511,260.911591 1341.923340,260.667297 
	C1340.940796,260.599640 1339.982178,260.223938 1339.005493,260.023651 
	C1327.477295,257.659729 1323.440186,251.570572 1326.454956,240.205750 
	C1327.896484,234.772400 1330.211182,229.570435 1332.135864,224.265686 
	C1333.888550,219.435135 1337.616699,217.091003 1342.478882,217.066071 
	C1365.637817,216.947388 1388.798096,216.959534 1411.957031,217.079956 
	C1416.177734,217.101913 1419.789917,218.964661 1421.559448,223.083298 
	C1423.849609,228.414276 1426.330322,233.721603 1427.964600,239.264481 
	C1431.742554,252.079300 1427.140625,258.430389 1416.218384,260.294708 
	C1412.303467,260.962921 1411.579590,263.366028 1411.878418,266.792694 
	C1412.217163,270.676270 1414.904663,270.520996 1417.666992,270.519196 
	C1440.496338,270.504120 1463.326050,270.572052 1486.154419,270.414673 
	C1488.406616,270.399170 1490.649658,269.044128 1492.980835,268.283478 
	C1493.372803,270.823822 1495.698608,271.133179 1498.975952,271.039337 
	C1517.944092,270.496277 1536.918945,270.071747 1555.894043,269.916992 
	C1573.359131,269.774567 1590.926514,271.231415 1608.270752,269.810211 
	C1632.967041,267.786591 1654.426147,257.381561 1671.145142,238.692551 
	C1692.396973,214.936478 1700.029419,186.622253 1696.645630,155.393692 
	C1692.856934,120.426567 1674.948486,95.172134 1642.282715,81.335243 
	C1622.761963,73.066422 1602.089478,71.774910 1581.069580,72.312981 
	C1555.948608,72.956055 1530.803223,72.732956 1505.668945,72.660522 
	C1502.222656,72.650589 1499.106567,71.585602 1498.182739,76.454681 
	C1497.336426,80.914757 1499.630005,82.024002 1503.303589,83.163063 
	C1517.776001,87.650581 1522.969238,94.824249 1522.983521,109.894615 
	C1523.022339,150.887146 1523.138184,191.880859 1522.820435,232.870987 
	C1522.779785,238.116135 1521.351685,243.899689 1518.818237,248.463440 
	C1513.341797,258.328522 1501.346436,257.346252 1492.753174,262.222961 
	C1491.713867,262.812714 1489.446777,260.903839 1487.671509,260.589355 
	C1479.881958,259.209320 1474.349365,254.698761 1470.481201,248.103012 
	C1467.714111,243.384750 1465.106567,238.528030 1462.932373,233.514374 
	C1450.843262,205.637527 1438.910522,177.692810 1426.920044,149.773178 
	C1415.976929,124.291969 1405.068115,98.795807 1393.987061,73.374741 
	C1393.299316,71.797127 1391.108154,69.629211 1389.840576,69.768890 
	C1384.771240,70.327477 1379.746094,71.526848 1374.810059,72.875313 
	C1373.662354,73.188896 1372.433838,74.887863 1372.085449,76.177170 
	C1369.669678,85.118515 1368.499512,94.539024 1365.024292,103.025444 
	C1353.573730,130.987366 1341.390259,158.651108 1329.338989,186.364380 
	C1321.393677,204.635681 1313.356079,222.870804 1305.038940,240.974792 
	C1300.511475,250.830048 1293.987793,258.845367 1282.346313,260.773254 
	C1281.705688,260.879333 1280.816284,260.979553 1280.517334,261.411285 
	C1278.287476,264.631042 1275.232788,263.691772 1273.042480,262.165161 
	C1267.258179,258.133392 1261.164795,254.207123 1256.420654,249.099869 
	C1249.302368,241.436783 1243.358398,232.696381 1236.685547,224.603333 
	C1225.572144,211.124756 1214.276855,197.796082 1202.520508,183.936661 
M166.748489,253.385330 
	C167.783691,249.883987 168.518311,246.258560 169.903931,242.901886 
	C177.636108,224.170486 185.485748,205.487152 193.379608,186.823074 
	C197.033157,178.184723 200.877869,169.627228 205.014099,160.168213 
	C206.277893,162.334229 207.173599,163.494064 207.686859,164.803772 
	C221.443924,199.908829 235.273178,234.986633 248.747620,270.200165 
	C250.467484,274.694763 252.833191,275.774475 256.882751,274.879150 
	C260.769684,274.019806 264.712677,273.223755 268.418335,271.833191 
	C269.808380,271.311554 271.166595,269.338745 271.565735,267.778503 
	C273.332336,260.872742 274.079651,253.643875 276.416290,246.958527 
	C282.277069,230.190582 288.682739,213.608871 295.080811,197.033890 
	C307.282501,165.424011 319.483765,133.812271 331.999084,102.326080 
	C336.347687,91.385803 342.667053,81.797882 355.434265,79.222748 
	C359.167145,78.469833 361.773499,77.295235 361.279022,72.869469 
	C360.780396,68.406601 357.562286,68.450142 354.270111,68.453384 
	C336.440033,68.470932 318.609741,68.507523 300.779968,68.434731 
	C297.004028,68.419319 293.600159,68.615105 293.202332,73.436455 
	C292.818329,78.089890 296.117737,78.694237 299.596313,79.192238 
	C301.062958,79.402206 302.521973,79.888939 303.900299,80.454849 
	C311.012543,83.374924 313.518433,87.120918 312.533112,94.818077 
	C311.926880,99.553749 310.746613,104.324570 309.070435,108.797180 
	C297.413818,139.901199 285.563629,170.932678 273.766113,201.983856 
	C271.256439,208.589294 268.708008,215.180008 265.720825,222.968002 
	C264.421143,220.613846 263.588409,219.444046 263.086121,218.146347 
	C249.416489,182.829453 235.852951,147.471313 222.102158,112.186119 
	C216.890320,98.812317 214.274536,85.775757 222.868073,72.607567 
	C225.086349,69.208397 221.783600,68.477623 219.097336,68.473167 
	C201.267319,68.443573 183.437210,68.477135 165.607162,68.457420 
	C162.678040,68.454178 160.331589,69.040222 159.823242,72.507866 
	C159.343292,75.781662 160.683060,77.530853 163.625275,79.127815 
	C166.890167,80.899933 170.563660,83.107925 172.382706,86.133949 
	C178.001770,95.481461 183.415802,105.048126 187.797363,115.018410 
	C192.833832,126.478905 195.316925,138.697662 190.295731,150.905701 
	C180.567368,174.558228 170.473984,198.060776 160.474426,221.601074 
	C160.013138,222.686981 158.991089,223.534668 157.794846,225.041855 
	C157.289719,223.688126 157.086563,223.122696 156.868744,222.562958 
	C148.311600,200.574875 139.704956,178.605865 131.209900,156.593826 
	C124.272781,138.618683 117.177063,120.696236 110.703400,102.553558 
	C106.029587,89.455002 109.533821,82.366226 121.483543,78.967773 
	C124.873787,78.003601 126.809212,76.574509 126.356178,72.821465 
	C125.867462,68.772804 123.064590,68.444244 119.829773,68.449234 
	C97.167282,68.484215 74.504631,68.498894 51.842278,68.433914 
	C48.478596,68.424271 45.821289,69.149597 45.193363,72.881546 
	C44.485950,77.085892 47.244850,78.350388 50.656746,79.029030 
	C58.288528,80.547028 64.263649,84.694611 67.867363,91.483910 
	C72.833969,100.840881 77.841675,110.254753 81.776108,120.067520 
	C100.812965,167.546814 119.467033,215.179443 138.322830,262.731537 
	C144.003769,277.058167 144.072891,276.919220 158.967743,272.742584 
	C162.931503,271.631104 164.675491,269.713593 164.742661,265.479858 
	C164.802567,261.703766 165.863770,257.943604 166.748489,253.385330 
M944.733154,93.015999 
	C967.827576,88.800674 989.741882,92.142113 1010.455994,103.245529 
	C1013.822449,105.050018 1017.204346,106.834892 1020.649475,108.481491 
	C1028.469360,112.219002 1032.631470,110.642746 1035.930054,102.595955 
	C1037.566162,98.604713 1038.759521,94.431831 1040.400879,90.443008 
	C1042.061646,86.406883 1041.162109,82.986717 1037.651367,80.866577 
	C1033.288696,78.231819 1028.732788,75.547760 1023.895386,74.130806 
	C1000.455200,67.264725 976.705444,66.836105 952.784729,71.597549 
	C932.052856,75.724243 913.517822,84.374084 898.491882,99.305923 
	C874.070129,123.574890 865.181580,153.548660 868.367310,187.314392 
	C870.247070,207.238251 877.665588,225.001541 891.542419,239.715729 
	C907.140442,256.254913 926.726807,265.830933 948.550964,270.704956 
	C969.786560,275.447601 991.102661,278.493042 1011.942688,268.064636 
	C1023.007080,262.527954 1034.533203,257.914062 1045.836060,252.890198 
	C1039.675659,238.853561 1039.399170,237.689835 1040.048828,217.561768 
	C1040.405518,206.515930 1044.518311,197.789917 1056.062256,194.396851 
	C1059.882446,193.273987 1060.903442,190.420074 1060.459839,187.076096 
	C1059.980469,183.460403 1057.005371,183.143402 1053.984863,183.146637 
	C1031.158325,183.171036 1008.331909,183.148804 985.505493,183.186035 
	C984.033508,183.188431 981.998535,183.028732 981.199463,183.869812 
	C979.062744,186.118591 977.456482,188.871384 975.639465,191.423920 
	C977.567932,192.574646 979.396973,193.972000 981.454773,194.802170 
	C983.271118,195.534897 985.373413,195.520020 987.296631,196.033142 
	C998.594482,199.047287 1007.106506,205.081635 1008.443604,217.604172 
	C1009.146423,224.186584 1009.386108,230.962158 1008.657227,237.519592 
	C1007.600647,247.024887 1001.865723,253.499573 992.482544,255.583206 
	C987.038025,256.792206 981.174438,257.239899 975.632141,256.690979 
	C949.740234,254.126541 929.950012,241.060120 915.940247,219.554108 
	C899.908691,194.944550 896.128174,167.665253 900.940186,139.113617 
	C905.085999,114.514839 919.127319,98.694824 944.733154,93.015999 
M783.278870,143.779266 
	C778.651794,150.943680 774.024780,158.108078 769.021729,165.854675 
	C755.796936,145.989655 743.060059,126.916573 730.420105,107.779480 
	C729.157837,105.868301 728.327759,103.622612 727.565796,101.438423 
	C724.061829,91.394028 726.717896,85.996788 736.857178,82.948273 
	C739.983459,82.008301 740.600342,80.005486 740.359314,77.287331 
	C740.099243,74.354294 738.662720,72.941826 735.478882,72.953201 
	C711.982849,73.037155 688.486328,73.027603 664.990173,72.962585 
	C661.957092,72.954193 660.263733,74.106613 659.881470,77.125755 
	C659.497253,80.160385 660.435242,81.904015 663.663574,83.049889 
	C667.965942,84.576981 672.555664,86.322769 675.909424,89.249435 
	C680.747864,93.471687 685.144775,98.460304 688.758118,103.781830 
	C706.232727,129.517227 723.392700,155.466370 740.616028,181.371826 
	C741.503357,182.706512 742.511414,184.338577 742.508301,185.830215 
	C742.469971,204.319611 742.496216,222.815567 741.967712,241.294434 
	C741.749573,248.920166 737.374817,254.474899 730.034729,256.968048 
	C724.554871,258.829376 718.859009,260.054810 713.151184,261.592529 
	C711.729248,268.855072 712.966858,270.507965 720.074341,270.508392 
	C746.070312,270.509949 772.066223,270.509491 798.062195,270.508698 
	C805.810913,270.508453 806.901184,269.172668 805.451477,261.135376 
	C803.107056,260.744171 800.646667,260.433502 798.231628,259.912781 
	C789.231323,257.972198 780.437744,255.526367 777.755371,245.068222 
	C776.816406,241.407440 776.489563,237.507126 776.455750,233.711090 
	C776.316223,218.048111 776.324951,202.382477 776.477661,186.719757 
	C776.499023,184.535355 777.150696,182.060745 778.312195,180.228714 
	C793.361877,156.490280 808.363953,132.717300 823.796326,109.227768 
	C831.471680,97.545166 839.420959,85.829582 854.620667,82.447151 
	C855.813599,82.181671 857.225708,78.594795 856.863953,76.910713 
	C856.529907,75.355637 853.962402,73.188316 852.352539,73.166008 
	C833.525757,72.905121 814.693909,73.036682 795.863770,72.964806 
	C792.347229,72.951378 791.220642,74.866844 790.960510,77.896042 
	C790.630127,81.743088 793.129272,82.390999 796.180115,83.102066 
	C807.868958,85.826393 811.853455,92.938080 807.908325,103.685181 
	C807.224915,105.547028 806.399536,107.401642 805.347656,109.076157 
	C798.183594,120.480408 790.941345,131.835541 783.278870,143.779266 
M566.205566,167.193695 
	C547.305603,134.486893 528.405579,101.780098 509.109192,68.387360 
	C469.010315,137.848770 429.561523,206.184052 389.879791,274.922852 
	C469.642731,274.922852 548.666870,274.922852 627.987549,274.922852 
	C627.501709,273.717163 627.242004,272.757629 626.761169,271.925903 
	C617.513916,255.929703 608.211792,239.965210 598.980469,223.959854 
	C588.185669,205.243698 577.447815,186.494629 566.205566,167.193695 
z"/>
<path fill="#131313" opacity="1.000000" stroke="none" 
	d="
M1202.789307,184.170456 
	C1214.276855,197.796082 1225.572144,211.124756 1236.685547,224.603333 
	C1243.358398,232.696381 1249.302368,241.436783 1256.420654,249.099869 
	C1261.164795,254.207123 1267.258179,258.133392 1273.042480,262.165161 
	C1275.232788,263.691772 1278.287476,264.631042 1280.517334,261.411285 
	C1280.816284,260.979553 1281.705688,260.879333 1282.346313,260.773254 
	C1293.987793,258.845367 1300.511475,250.830048 1305.038940,240.974792 
	C1313.356079,222.870804 1321.393677,204.635681 1329.338989,186.364380 
	C1341.390259,158.651108 1353.573730,130.987366 1365.024292,103.025444 
	C1368.499512,94.539024 1369.669678,85.118515 1372.085449,76.177170 
	C1372.433838,74.887863 1373.662354,73.188896 1374.810059,72.875313 
	C1379.746094,71.526848 1384.771240,70.327477 1389.840576,69.768890 
	C1391.108154,69.629211 1393.299316,71.797127 1393.987061,73.374741 
	C1405.068115,98.795807 1415.976929,124.291969 1426.920044,149.773178 
	C1438.910522,177.692810 1450.843262,205.637527 1462.932373,233.514374 
	C1465.106567,238.528030 1467.714111,243.384750 1470.481201,248.103012 
	C1474.349365,254.698761 1479.881958,259.209320 1487.671509,260.589355 
	C1489.446777,260.903839 1491.713867,262.812714 1492.753174,262.222961 
	C1501.346436,257.346252 1513.341797,258.328522 1518.818237,248.463440 
	C1521.351685,243.899689 1522.779785,238.116135 1522.820435,232.870987 
	C1523.138184,191.880859 1523.022339,150.887146 1522.983521,109.894615 
	C1522.969238,94.824249 1517.776001,87.650581 1503.303589,83.163063 
	C1499.630005,82.024002 1497.336426,80.914757 1498.182739,76.454681 
	C1499.106567,71.585602 1502.222656,72.650589 1505.668945,72.660522 
	C1530.803223,72.732956 1555.948608,72.956055 1581.069580,72.312981 
	C1602.089478,71.774910 1622.761963,73.066422 1642.282715,81.335243 
	C1674.948486,95.172134 1692.856934,120.426567 1696.645630,155.393692 
	C1700.029419,186.622253 1692.396973,214.936478 1671.145142,238.692551 
	C1654.426147,257.381561 1632.967041,267.786591 1608.270752,269.810211 
	C1590.926514,271.231415 1573.359131,269.774567 1555.894043,269.916992 
	C1536.918945,270.071747 1517.944092,270.496277 1498.975952,271.039337 
	C1495.698608,271.133179 1493.372803,270.823822 1492.980835,268.283478 
	C1490.649658,269.044128 1488.406616,270.399170 1486.154419,270.414673 
	C1463.326050,270.572052 1440.496338,270.504120 1417.666992,270.519196 
	C1414.904663,270.520996 1412.217163,270.676270 1411.878418,266.792694 
	C1411.579590,263.366028 1412.303467,260.962921 1416.218384,260.294708 
	C1427.140625,258.430389 1431.742554,252.079300 1427.964600,239.264481 
	C1426.330322,233.721603 1423.849609,228.414276 1421.559448,223.083298 
	C1419.789917,218.964661 1416.177734,217.101913 1411.957031,217.079956 
	C1388.798096,216.959534 1365.637817,216.947388 1342.478882,217.066071 
	C1337.616699,217.091003 1333.888550,219.435135 1332.135864,224.265686 
	C1330.211182,229.570435 1327.896484,234.772400 1326.454956,240.205750 
	C1323.440186,251.570572 1327.477295,257.659729 1339.005493,260.023651 
	C1339.982178,260.223938 1340.940796,260.599640 1341.923340,260.667297 
	C1345.473511,260.911591 1346.272827,263.075714 1346.047607,266.164917 
	C1345.798828,269.576569 1343.886963,270.565643 1340.698242,270.548309 
	C1325.201416,270.463989 1309.703857,270.490753 1294.206543,270.520538 
	C1287.955688,270.532532 1281.929932,271.044678 1275.683838,272.705627 
	C1252.763672,278.800507 1233.769897,272.077972 1219.165527,253.209778 
	C1206.018555,236.224442 1192.279297,219.671570 1179.718506,202.266068 
	C1167.552124,185.407211 1151.031738,180.195831 1130.869629,181.058563 
	C1130.869629,184.341873 1130.869507,187.615860 1130.869629,190.889832 
	C1130.869995,204.554108 1131.205566,218.228607 1130.788452,231.880112 
	C1130.237061,249.924072 1136.755249,256.577423 1155.377319,259.953033 
	C1157.805786,260.393250 1160.247925,260.758514 1162.595459,261.144012 
	C1164.018311,269.203735 1162.954468,270.510284 1155.211670,270.510529 
	C1129.716187,270.511353 1104.219604,270.398041 1078.726074,270.617371 
	C1074.273071,270.655701 1072.458984,268.819641 1072.599609,264.938965 
	C1072.651978,263.494293 1074.243652,262.041718 1075.307373,260.734283 
	C1075.647217,260.316528 1076.543091,260.335999 1077.191772,260.186981 
	C1091.286865,256.948578 1096.812500,250.216888 1096.908203,235.660080 
	C1097.024292,217.997269 1096.942505,200.333160 1096.943359,182.669601 
	C1096.944580,159.340363 1096.922363,136.011093 1096.949585,112.681892 
	C1096.967896,97.030815 1092.977295,87.388351 1075.838379,82.815331 
	C1072.512451,81.927917 1071.698120,79.833580 1072.498169,76.802368 
	C1073.134277,74.391945 1073.459961,71.991409 1077.209106,72.419998 
	C1101.821167,75.233589 1126.448608,73.607979 1151.075317,72.450348 
	C1168.656128,71.623932 1186.118042,72.379318 1202.555420,79.488922 
	C1225.114258,89.246170 1235.566040,108.843102 1231.955078,133.702408 
	C1228.995605,154.076294 1210.844971,170.938507 1188.611206,173.983490 
	C1186.702026,174.244965 1184.803101,174.581940 1184.030396,174.704498 
	C1189.858765,177.614655 1196.189697,180.775650 1202.789307,184.170456 
M1556.929565,144.499985 
	C1556.928833,173.498047 1556.914673,202.496109 1556.933472,231.494156 
	C1556.942017,244.791092 1561.996582,252.114777 1575.276245,253.978928 
	C1586.684692,255.580429 1598.507935,255.736603 1610.013184,254.828232 
	C1634.841064,252.868027 1653.873413,236.644897 1659.860962,212.575226 
	C1667.294434,182.693756 1664.171387,153.666260 1649.810059,126.322136 
	C1635.109619,98.332397 1603.916870,83.052101 1573.213623,88.041527 
	C1561.880493,89.883209 1556.980103,95.539963 1556.935425,107.002441 
	C1556.887939,119.168106 1556.927856,131.334106 1556.929565,144.499985 
M1196.789185,125.973160 
	C1194.088989,100.302101 1177.015991,87.120049 1152.385864,86.989372 
	C1137.171631,86.908653 1130.838501,93.144585 1130.845947,108.409409 
	C1130.854614,126.373985 1130.862061,144.338562 1130.869995,162.303146 
	C1130.870728,164.054550 1130.869995,165.805954 1130.869995,167.827103 
	C1136.359131,167.827103 1141.214111,168.294846 1145.946777,167.732635 
	C1156.786499,166.444916 1167.738525,165.377899 1178.320679,162.858826 
	C1188.358521,160.469391 1194.333374,152.976852 1196.005615,142.757202 
	C1196.856201,137.558701 1196.618652,132.182144 1196.789185,125.973160 
M1404.525635,181.959824 
	C1395.610718,160.675812 1386.695801,139.391785 1377.522583,117.491234 
	C1376.542236,119.577118 1375.864380,120.897522 1375.289429,122.261246 
	C1365.498047,145.483841 1355.716553,168.710510 1345.940063,191.939346 
	C1342.608032,199.856384 1343.260254,200.813126 1352.160034,200.827393 
	C1368.299805,200.853287 1384.439575,200.838806 1400.579346,200.829193 
	C1402.407471,200.828110 1404.250610,200.884964 1406.060669,200.681610 
	C1410.875488,200.140594 1411.593872,198.968597 1409.835083,194.589844 
	C1408.228516,190.589996 1406.519409,186.631409 1404.525635,181.959824 
z"/>
<path fill="#141414" opacity="1.000000" stroke="none" 
	d="
M166.615814,253.780853 
	C165.863770,257.943604 164.802567,261.703766 164.742661,265.479858 
	C164.675491,269.713593 162.931503,271.631104 158.967743,272.742584 
	C144.072891,276.919220 144.003769,277.058167 138.322830,262.731537 
	C119.467033,215.179443 100.812965,167.546814 81.776108,120.067520 
	C77.841675,110.254753 72.833969,100.840881 67.867363,91.483910 
	C64.263649,84.694611 58.288528,80.547028 50.656746,79.029030 
	C47.244850,78.350388 44.485950,77.085892 45.193363,72.881546 
	C45.821289,69.149597 48.478596,68.424271 51.842278,68.433914 
	C74.504631,68.498894 97.167282,68.484215 119.829773,68.449234 
	C123.064590,68.444244 125.867462,68.772804 126.356178,72.821465 
	C126.809212,76.574509 124.873787,78.003601 121.483543,78.967773 
	C109.533821,82.366226 106.029587,89.455002 110.703400,102.553558 
	C117.177063,120.696236 124.272781,138.618683 131.209900,156.593826 
	C139.704956,178.605865 148.311600,200.574875 156.868744,222.562958 
	C157.086563,223.122696 157.289719,223.688126 157.794846,225.041855 
	C158.991089,223.534668 160.013138,222.686981 160.474426,221.601074 
	C170.473984,198.060776 180.567368,174.558228 190.295731,150.905701 
	C195.316925,138.697662 192.833832,126.478905 187.797363,115.018410 
	C183.415802,105.048126 178.001770,95.481461 172.382706,86.133949 
	C170.563660,83.107925 166.890167,80.899933 163.625275,79.127815 
	C160.683060,77.530853 159.343292,75.781662 159.823242,72.507866 
	C160.331589,69.040222 162.678040,68.454178 165.607162,68.457420 
	C183.437210,68.477135 201.267319,68.443573 219.097336,68.473167 
	C221.783600,68.477623 225.086349,69.208397 222.868073,72.607567 
	C214.274536,85.775757 216.890320,98.812317 222.102158,112.186119 
	C235.852951,147.471313 249.416489,182.829453 263.086121,218.146347 
	C263.588409,219.444046 264.421143,220.613846 265.720825,222.968002 
	C268.708008,215.180008 271.256439,208.589294 273.766113,201.983856 
	C285.563629,170.932678 297.413818,139.901199 309.070435,108.797180 
	C310.746613,104.324570 311.926880,99.553749 312.533112,94.818077 
	C313.518433,87.120918 311.012543,83.374924 303.900299,80.454849 
	C302.521973,79.888939 301.062958,79.402206 299.596313,79.192238 
	C296.117737,78.694237 292.818329,78.089890 293.202332,73.436455 
	C293.600159,68.615105 297.004028,68.419319 300.779968,68.434731 
	C318.609741,68.507523 336.440033,68.470932 354.270111,68.453384 
	C357.562286,68.450142 360.780396,68.406601 361.279022,72.869469 
	C361.773499,77.295235 359.167145,78.469833 355.434265,79.222748 
	C342.667053,81.797882 336.347687,91.385803 331.999084,102.326080 
	C319.483765,133.812271 307.282501,165.424011 295.080811,197.033890 
	C288.682739,213.608871 282.277069,230.190582 276.416290,246.958527 
	C274.079651,253.643875 273.332336,260.872742 271.565735,267.778503 
	C271.166595,269.338745 269.808380,271.311554 268.418335,271.833191 
	C264.712677,273.223755 260.769684,274.019806 256.882751,274.879150 
	C252.833191,275.774475 250.467484,274.694763 248.747620,270.200165 
	C235.273178,234.986633 221.443924,199.908829 207.686859,164.803772 
	C207.173599,163.494064 206.277893,162.334229 205.014099,160.168213 
	C200.877869,169.627228 197.033157,178.184723 193.379608,186.823074 
	C185.485748,205.487152 177.636108,224.170486 169.903931,242.901886 
	C168.518311,246.258560 167.783691,249.883987 166.615814,253.780853 
z"/>
<path fill="#131313" opacity="1.000000" stroke="none" 
	d="
M944.312073,93.067741 
	C919.127319,98.694824 905.085999,114.514839 900.940186,139.113617 
	C896.128174,167.665253 899.908691,194.944550 915.940247,219.554108 
	C929.950012,241.060120 949.740234,254.126541 975.632141,256.690979 
	C981.174438,257.239899 987.038025,256.792206 992.482544,255.583206 
	C1001.865723,253.499573 1007.600647,247.024887 1008.657227,237.519592 
	C1009.386108,230.962158 1009.146423,224.186584 1008.443604,217.604172 
	C1007.106506,205.081635 998.594482,199.047287 987.296631,196.033142 
	C985.373413,195.520020 983.271118,195.534897 981.454773,194.802170 
	C979.396973,193.972000 977.567932,192.574646 975.639465,191.423920 
	C977.456482,188.871384 979.062744,186.118591 981.199463,183.869812 
	C981.998535,183.028732 984.033508,183.188431 985.505493,183.186035 
	C1008.331909,183.148804 1031.158325,183.171036 1053.984863,183.146637 
	C1057.005371,183.143402 1059.980469,183.460403 1060.459839,187.076096 
	C1060.903442,190.420074 1059.882446,193.273987 1056.062256,194.396851 
	C1044.518311,197.789917 1040.405518,206.515930 1040.048828,217.561768 
	C1039.399170,237.689835 1039.675659,238.853561 1045.836060,252.890198 
	C1034.533203,257.914062 1023.007080,262.527954 1011.942688,268.064636 
	C991.102661,278.493042 969.786560,275.447601 948.550964,270.704956 
	C926.726807,265.830933 907.140442,256.254913 891.542419,239.715729 
	C877.665588,225.001541 870.247070,207.238251 868.367310,187.314392 
	C865.181580,153.548660 874.070129,123.574890 898.491882,99.305923 
	C913.517822,84.374084 932.052856,75.724243 952.784729,71.597549 
	C976.705444,66.836105 1000.455200,67.264725 1023.895386,74.130806 
	C1028.732788,75.547760 1033.288696,78.231819 1037.651367,80.866577 
	C1041.162109,82.986717 1042.061646,86.406883 1040.400879,90.443008 
	C1038.759521,94.431831 1037.566162,98.604713 1035.930054,102.595955 
	C1032.631470,110.642746 1028.469360,112.219002 1020.649475,108.481491 
	C1017.204346,106.834892 1013.822449,105.050018 1010.455994,103.245529 
	C989.741882,92.142113 967.827576,88.800674 944.312073,93.067741 
z"/>
<path fill="#121212" opacity="1.000000" stroke="none" 
	d="
M783.501587,143.492905 
	C790.941345,131.835541 798.183594,120.480408 805.347656,109.076157 
	C806.399536,107.401642 807.224915,105.547028 807.908325,103.685181 
	C811.853455,92.938080 807.868958,85.826393 796.180115,83.102066 
	C793.129272,82.390999 790.630127,81.743088 790.960510,77.896042 
	C791.220642,74.866844 792.347229,72.951378 795.863770,72.964806 
	C814.693909,73.036682 833.525757,72.905121 852.352539,73.166008 
	C853.962402,73.188316 856.529907,75.355637 856.863953,76.910713 
	C857.225708,78.594795 855.813599,82.181671 854.620667,82.447151 
	C839.420959,85.829582 831.471680,97.545166 823.796326,109.227768 
	C808.363953,132.717300 793.361877,156.490280 778.312195,180.228714 
	C777.150696,182.060745 776.499023,184.535355 776.477661,186.719757 
	C776.324951,202.382477 776.316223,218.048111 776.455750,233.711090 
	C776.489563,237.507126 776.816406,241.407440 777.755371,245.068222 
	C780.437744,255.526367 789.231323,257.972198 798.231628,259.912781 
	C800.646667,260.433502 803.107056,260.744171 805.451477,261.135376 
	C806.901184,269.172668 805.810913,270.508453 798.062195,270.508698 
	C772.066223,270.509491 746.070312,270.509949 720.074341,270.508392 
	C712.966858,270.507965 711.729248,268.855072 713.151184,261.592529 
	C718.859009,260.054810 724.554871,258.829376 730.034729,256.968048 
	C737.374817,254.474899 741.749573,248.920166 741.967712,241.294434 
	C742.496216,222.815567 742.469971,204.319611 742.508301,185.830215 
	C742.511414,184.338577 741.503357,182.706512 740.616028,181.371826 
	C723.392700,155.466370 706.232727,129.517227 688.758118,103.781830 
	C685.144775,98.460304 680.747864,93.471687 675.909424,89.249435 
	C672.555664,86.322769 667.965942,84.576981 663.663574,83.049889 
	C660.435242,81.904015 659.497253,80.160385 659.881470,77.125755 
	C660.263733,74.106613 661.957092,72.954193 664.990173,72.962585 
	C688.486328,73.027603 711.982849,73.037155 735.478882,72.953201 
	C738.662720,72.941826 740.099243,74.354294 740.359314,77.287331 
	C740.600342,80.005486 739.983459,82.008301 736.857178,82.948273 
	C726.717896,85.996788 724.061829,91.394028 727.565796,101.438423 
	C728.327759,103.622612 729.157837,105.868301 730.420105,107.779480 
	C743.060059,126.916573 755.796936,145.989655 769.021729,165.854675 
	C774.024780,158.108078 778.651794,150.943680 783.501587,143.492905 
z"/>
<path fill="#151515" opacity="1.000000" stroke="none" 
	d="
M566.445435,167.476761 
	C577.447815,186.494629 588.185669,205.243698 598.980469,223.959854 
	C608.211792,239.965210 617.513916,255.929703 626.761169,271.925903 
	C627.242004,272.757629 627.501709,273.717163 627.987549,274.922852 
	C548.666870,274.922852 469.642731,274.922852 389.879791,274.922852 
	C429.561523,206.184052 469.010315,137.848770 509.109192,68.387360 
	C528.405579,101.780098 547.305603,134.486893 566.445435,167.476761 
M482.500000,264.993805 
	C525.007874,264.993805 567.515747,264.993805 610.988770,264.993805 
	C576.769043,205.728088 543.126648,147.462280 509.122864,88.570534 
	C474.917206,147.821869 441.292542,206.066818 407.274109,264.993805 
	C432.635803,264.993805 457.067902,264.993805 482.500000,264.993805 
z"/>
<path fill="#FEFEFE" opacity="1.000000" stroke="none" 
	d="
M1556.929688,143.999969 
	C1556.927856,131.334106 1556.887939,119.168106 1556.935425,107.002441 
	C1556.980103,95.539963 1561.880493,89.883209 1573.213623,88.041527 
	C1603.916870,83.052101 1635.109619,98.332397 1649.810059,126.322136 
	C1664.171387,153.666260 1667.294434,182.693756 1659.860962,212.575226 
	C1653.873413,236.644897 1634.841064,252.868027 1610.013184,254.828232 
	C1598.507935,255.736603 1586.684692,255.580429 1575.276245,253.978928 
	C1561.996582,252.114777 1556.942017,244.791092 1556.933472,231.494156 
	C1556.914673,202.496109 1556.928833,173.498047 1556.929688,143.999969 
z"/>
<path fill="#FEFEFE" opacity="1.000000" stroke="none" 
	d="
M1196.831055,126.429619 
	C1196.618652,132.182144 1196.856201,137.558701 1196.005615,142.757202 
	C1194.333374,152.976852 1188.358521,160.469391 1178.320679,162.858826 
	C1167.738525,165.377899 1156.786499,166.444916 1145.946777,167.732635 
	C1141.214111,168.294846 1136.359131,167.827103 1130.869995,167.827103 
	C1130.869995,165.805954 1130.870728,164.054550 1130.869995,162.303146 
	C1130.862061,144.338562 1130.854614,126.373985 1130.845947,108.409409 
	C1130.838501,93.144585 1137.171631,86.908653 1152.385864,86.989372 
	C1177.015991,87.120049 1194.088989,100.302101 1196.831055,126.429619 
z"/>
<path fill="#FCFCFC" opacity="1.000000" stroke="none" 
	d="
M1404.690552,182.307220 
	C1406.519409,186.631409 1408.228516,190.589996 1409.835083,194.589844 
	C1411.593872,198.968597 1410.875488,200.140594 1406.060669,200.681610 
	C1404.250610,200.884964 1402.407471,200.828110 1400.579346,200.829193 
	C1384.439575,200.838806 1368.299805,200.853287 1352.160034,200.827393 
	C1343.260254,200.813126 1342.608032,199.856384 1345.940063,191.939346 
	C1355.716553,168.710510 1365.498047,145.483841 1375.289429,122.261246 
	C1375.864380,120.897522 1376.542236,119.577118 1377.522583,117.491234 
	C1386.695801,139.391785 1395.610718,160.675812 1404.690552,182.307220 
z"/>
<path fill="#FEFEFE" opacity="1.000000" stroke="none" 
	d="
M482.000000,264.993805 
	C457.067902,264.993805 432.635803,264.993805 407.274109,264.993805 
	C441.292542,206.066818 474.917206,147.821869 509.122864,88.570534 
	C543.126648,147.462280 576.769043,205.728088 610.988770,264.993805 
	C567.515747,264.993805 525.007874,264.993805 482.000000,264.993805 
M473.732147,180.205444 
	C460.409302,203.247910 447.086456,226.290375 433.579620,249.651077 
	C484.171417,249.651077 534.089050,249.651077 584.681091,249.651077 
	C559.403137,205.911255 534.449158,162.732162 509.115570,118.896164 
	C497.125183,139.689285 485.623535,159.634888 473.732147,180.205444 
z"/>
<path fill="#151515" opacity="1.000000" stroke="none" 
	d="
M473.927002,179.892960 
	C485.623535,159.634888 497.125183,139.689285 509.115570,118.896164 
	C534.449158,162.732162 559.403137,205.911255 584.681091,249.651077 
	C534.089050,249.651077 484.171417,249.651077 433.579620,249.651077 
	C447.086456,226.290375 460.409302,203.247910 473.927002,179.892960 
M455.481293,232.017136 
	C454.141632,234.383499 452.802002,236.749863 451.229828,239.526947 
	C490.275696,239.526947 528.407227,239.526947 567.172607,239.526947 
	C547.751282,205.888412 528.621460,172.754639 509.109222,138.958664 
	C491.086945,170.234482 473.471313,200.804535 455.481293,232.017136 
z"/>
<path fill="#FAFAFA" opacity="1.000000" stroke="none" 
	d="
M455.668518,231.695862 
	C473.471313,200.804535 491.086945,170.234482 509.109222,138.958664 
	C528.621460,172.754639 547.751282,205.888412 567.172607,239.526947 
	C528.407227,239.526947 490.275696,239.526947 451.229828,239.526947 
	C452.802002,236.749863 454.141632,234.383499 455.668518,231.695862 
M540.326477,223.327469 
	C530.053589,205.555176 519.780640,187.782867 509.106995,169.317352 
	C498.215118,188.205154 487.849823,206.179779 477.096680,224.826996 
	C498.746826,224.826996 519.182739,224.830750 539.618652,224.794403 
	C539.955261,224.793808 540.290894,224.304581 540.326477,223.327469 
z"/>
<path fill="#191919" opacity="1.000000" stroke="none" 
	d="
M540.476746,223.685425 
	C540.290894,224.304581 539.955261,224.793808 539.618652,224.794403 
	C519.182739,224.830750 498.746826,224.826996 477.096680,224.826996 
	C487.849823,206.179779 498.215118,188.205154 509.106995,169.317352 
	C519.780640,187.782867 530.053589,205.555176 540.476746,223.685425 
M497.733368,209.197815 
	C496.872620,210.926788 496.011871,212.655762 495.095093,214.497223 
	C504.627045,214.497223 513.737305,214.497223 523.508240,214.497223 
	C518.639526,206.008728 514.084656,198.067490 509.187897,189.530151 
	C505.318359,196.176498 501.716187,202.363647 497.733368,209.197815 
z"/>
<path fill="#F3F3F3" opacity="1.000000" stroke="none" 
	d="
M497.923706,208.874313 
	C501.716187,202.363647 505.318359,196.176498 509.187897,189.530151 
	C514.084656,198.067490 518.639526,206.008728 523.508240,214.497223 
	C513.737305,214.497223 504.627045,214.497223 495.095093,214.497223 
	C496.011871,212.655762 496.872620,210.926788 497.923706,208.874313 
z"/>
</svg>